<?xml version="1.0" encoding="UTF-8"?>
<svg id="Layer_2" data-name="Layer 2" xmlns="http://www.w3.org/2000/svg" viewBox="0 0 377.65 78.43">
  <defs>
    <style>
      .cls-1 {
        fill: #231f20;
        stroke-width: 0px;
      }
    </style>
  </defs>
  <g id="Layer_1-2" data-name="Layer 1">
    <g>
      <path class="cls-1" d="M165.71,36.27c-.37,0-.58.17-.73.44-.16.26-.5.36-.79.53-.21.25-.5.44-.83.61-.38.11-.66.35-.87.68-.4.13-.77.31-.9.74-.07.2-.23.33-.4.44s-.37.2-.51.35c-.27.02-.43.14-.51.36-.03.26-.25.33-.42.46-.23.07-.26.34-.45.44-.16.13-.16.44-.48.41-.2.33-.42.63-.81.76-.26.27-.54.51-.8.77-.45.07-.45.59-.78.78-.4.12-.46.57-.76.77-.41.09-.48.52-.73.76-.14.35-.43.55-.7.74-.27.2-.45.48-.66.72-.21.24-.42.47-.61.69.15-.33.3-.68.46-1.03s.46-.58.5-1.08c.16-.37.27-.81.53-1.1.17-.38.31-.79.54-1.11.18-.09.32-.23.41-.41.09-.18.11-.44.14-.68.17-.1.29-.25.29-.52.09-.18.1-.44.26-.54.15-.12.21-.31.29-.5.07-.19.19-.33.25-.51.13-.13.19-.32.24-.51.12-.12.21-.28.28-.44.16-.31.22-.71.49-.86.18-.24.13-.7.45-.75.15-.23.29-.43.4-.63.25-.17.39-.38.36-.71.07-.23.2-.35.12-.63.02-.11.03-.2,0-.31s-.1-.24-.25-.43c0-.04-.04-.1-.29-.35-.1-.11-.24-.23-.37-.33-.17-.14-.19-.12-.42-.29-.06,0-.48-.34-.46-.24-.38-.21-.46-.06-.93-.28-.25,0-.52.03-.81.06-.07.14-.45-.01-.48.24.03.3-.33.25-.57.35-.35-.01-.38.33-.65.45-.23.17-.49.32-.72.54-.28.16-.38.54-.79.62-.22.27-.5.52-.85.7-.31.23-.47.62-.89.77-.15.42-.67.49-.93.83-.45.15-.68.53-.97.88-.25.38-.62.64-.99.93-.25.39-.63.67-1,.96-.42.24-.61.72-1.01.99-.37.3-.84.51-1.01,1.01-.31.36-.61.74-1,1.02-.44.23-.61.73-.98,1.03-.37.29-.66.66-.95,1.02-.3.35-.59.7-.91,1.01-.3.33-.59.66-.87.99-.28.33-.55.65-.81.96.15-.38.3-.76.45-1.15s.31-.77.46-1.15c.15-.39.29-.78.47-1.13,0-.51.36-.67.46-1.07.15-.35.3-.67.43-.99.23-.22.18-.7.4-.88.13-.27.43-.33.35-.73.11-.22.17-.44.3-.56.28-.6.62-1.12.99-1.59.17-.25.33-.5.49-.75.1-.31.09-.72.44-.77-.18-.57.25-.53.39-.78-.03-.41.53-.23.48-.65.16-.21.11-.63.39-.71-.19-.55.51-.2.42-.63.24-.65.79-.93.94-1.57.41-.38.52-1.01.82-1.4.23-.47.47-.86.7-1.22.17-.41.47-.65.56-1.02.04-.43.24-.64.42-.81.19-.16.21-.43.26-.59.09-.13.02-.36.1-.36.03-.48-.1-.87-.31-1.18s-.36-.39-.77-.68c-.18-.05-.54-.2-.72-.21-.07.17-.5.04-.64.26-.36,0-.27.51-.61.68-.17.22-.6.22-.54.72-.17.27-.34.58-.58.82-.46.03-.38.62-.62.91.05.05.11.11,0,0-.26.51-.74.79-.97,1.32-.3.46-.78.75-1,1.3-.29.48-.52,1.01-1.02,1.27-.57.2-.74.79-1.05,1.25-.3.46-.74.78-1.07,1.22-.37.39-.79.73-1.08,1.19-.56.19-.74.77-1.1,1.16-.11.64-.52.97-1.11,1.13-.17.57-.9.58-1.12,1.09-.19.54-.51.95-1.12,1.06-.43.29-.76.68-1.12,1.03-.3.05-.52.19-.69.37s-.3.4-.42.62c-.24.11-.36.34-.54.5-.24.1-.38.3-.57.46-.36.32-.66.7-1.1.91-.03.64-.75.57-1.09.88-.38.27-.42.86-1.07.84-.23.4-.78.46-1.06.79-.26.34-.81.4-1.03.75-.51.07-.38.77-1.01.71-.45.11-.66.45-.98.66-.44.09-.69.36-.95.62-.43.08-.56.44-.91.57-.25.23-.39.56-.87.52-.35.1-.81.08-.83.47-.59-.17-.49.34-.79.42-.17.02-.27.12-.36.2-.1.09-.08.28-.38.17-.33-.16-.25.1-.4.12.02.19-.2.13-.29.2.06.22-.2.11-.32.14-.16-.01-.29,0-.31.13-.29.09-.47.25-.76.27-.45-.15-.57.01-.65.17-.18.05-.15.29-.53.07-.4-.08-.46.01-.77-.28-.3-.28-.24-.34-.48-.78-.22-.42-.19-.68-.25-1.07.12-.21-.18-.9-.06-1.16-.1-.44.04-.67.09-.99.2-.17,0-.77.14-1.01.07-.32.23-.58.2-1.03.09-.33.08-.77.25-1.04-.09-.53.26-.63.3-1.05.12-.34.29-.64.35-1.06.11-.37.22-.74.39-1.06.07-.42.48-.52.43-1.07.07-.43.57-.44.47-1.06.05-.47.35-.69.51-1.06.16-.37.35-.7.54-1.05.09-.17.19-.35.28-.52s.24-.3.29-.52c.11.3.14.51.15.68.08.24.19.49.17.61.18.31.11.35.2.54.02.12.04.22.23.47.2.33.21.41.53.75.19.2.32.3.61.5.38.33.21.11.33.16-.11-.18.23.08.35.11.34.15.68.25.75.05.27-.01.36-.24.8-.15.28-.08.46-.3.84-.34.52.09.52-.38.87-.52.42-.07.52-.5.89-.68.36-.18.53-.6.9-.83.35-.25.52-.69.89-.96.42-.22.57-.72.87-1.08.14-.52.48-.86.85-1.18.15-.54.37-1.01.81-1.27.49-.21.73-.67.76-1.35.19-.51.45-.95.69-1.41.25-.45.44-.95.62-1.45.19-.49.33-1.03.54-1.49.08-.58.43-.88.44-1.5.28-.35.21-1.04.33-1.51.12-.16,0-.55-.05-.82-.24-.47-.06-.47-.36-.91-.09-.23-.16-.4-.61-.89.02,0-.34-.37-.41-.44-.14-.13-.24-.22-.37-.32-.09-.06-.25-.18-.42-.29s-.35-.21-.47-.24c-.39-.21-.69-.26-.93-.19-.27,0-.6-.04-.72.16-.15.17-.44.21-.75.25-.36,0-.47.25-.78.33-.16.23-.49.3-.8.41-.43,0-.46.39-.82.49-.17.28-.44.48-.84.56-.43.05-.49.49-.85.63-.5,0-.52.5-.86.69-.4.13-.58.49-.87.75-.41.14-.58.53-.87.81-.46.11-.7.45-.86.87-.53.06-.36.82-.86.92-.23.37-.33.87-.85.97-.3.31-.42.8-.83,1.01-.28.34-.51.73-.81,1.05-.32.31-.6.65-.79,1.09-.11.52-.39.87-.77,1.12-.41.22-.56.7-.74,1.15-.11.51-.64.61-.7,1.17-.34.28-.42.82-.67,1.2-.33.29-.31.92-.62,1.22.04.65-.33.88-.58,1.23-.25.35-.25.94-.53,1.24-.1.48-.66.5-.48,1.25-.08.49,0,1.13-.42,1.25-.11.44-.23.85-.36,1.26-.09.43-.36.69-.29,1.25-.18.32-.08.91-.22,1.25-.25.23-.03.91-.15,1.24.15.6-.12.76-.08,1.22-.24.18-.11.71,0,1.21-.08.18.05.54.05.77-.12.1.06.49.1.73,0,.19.13.51.07.62.02.19.07.39.26.72.32.6.44.95.49,1.18.04.22.3.6.62,1.01.16.24.54.64.74.83.11.09.6.52.83.65.39.28.63.38.91.46.41.22.46.04.96.27.26,0,.62.04,1,.08.1-.11.43-.03.66-.06.06-.21.62.06.73-.16.25-.07.36-.31.78-.25.25-.12.44-.32.83-.34.39-.02.63-.22.88-.42.49.04.37-.56.93-.5.38-.11.67-.34.97-.57.38-.15.5-.57,1-.64.28-.28.83-.31,1.03-.7.38-.21.66-.54,1.06-.76.29-.32.69-.56,1.08-.81.41-.23.68-.62,1.1-.86.41-.25.87-.47,1.11-.9.21-.47.69-.68,1.12-.94.58-.11.76-.64,1.12-.98.34-.37.82-.6,1.13-1.01.37-.34.67-.76,1.12-1.04.51-.22.68-.77,1.11-1.06.34.17.26-.09.27-.25.04-.14.11-.24.27-.25.18,0,.26-.08.24-.27.16-.01.08-.26.26-.25.1-.07.37.03.31-.2.16-.02.18-.16.2-.32.06-.11.27-.07.27-.24.15-.02.25-.09.24-.27.12-.05.13-.22.31-.2.1-.07.13-.21.21-.31.1-.08.21-.14.3-.21s.17-.17.2-.32c.08-.26.23-.45.44-.57.01-.32.38-.29.54-.47.18-.15.36-.31.49-.51.17-.16.37-.3.47-.53-.04.29-.15.52-.35.65-.17.17-.18.49-.32.68-.12.21-.25.41-.36.63-.11.22-.2.46-.31.68-.17.16-.26.4-.34.64s-.16.48-.32.65c-.13.2-.3.35-.33.63-.18.14-.21.42-.33.62-.08.23-.21.42-.33.6-.02.29-.15.46-.3.61-.14.16-.19.41-.31.59-.26.03-.18.4-.3.58-.22.06-.31.26-.41.44s-.17.39-.16.67c-.36.18-.24.82-.54,1.03-.18.32-.34.65-.49.96-.28.18-.42.48-.44.87-.05.36-.31.49-.39.77-.05.31-.38.31-.33.67-.16.15-.22.35-.26.55-.11.08-.19.19.13.69.41.59.37.7.39.83.04.16.32.5.61.8.37.38.29.23.81.59.13-.03.48.07.98.22.14,0,.28-.04.42-.1s.3-.15.46-.28c.25-.04.32-.29.51-.45.18-.18.29-.47.58-.63.12-.33.26-.67.67-.8.37-.16.48-.64.77-.97.3-.33.47-.83.88-1.14.09-.63.68-.82,1.01-1.32.39-.44.64-1.07,1.16-1.48.34-.6,1-.92,1.32-1.65.15-.47.5-.73.86-.97.31-.3.65-.55.85-.94.14-.45.46-.72.85-.92.18-.41.58-.58.85-.89.3-.27.44-.71.85-.87.21-.36.43-.7.85-.85.19-.37.65-.47.85-.83.11-.45.53-.59.85-.82.32-.24.63-.47.85-.8.3-.25.47-.63.86-.79.32-.23.51-.59.87-.78.37-.18.58-.52.87-.77.24-.31.58-.52.88-.77.3-.25.59-.51.89-.76-.16.52-.6.77-.69,1.37-.29.39-.57.8-.7,1.36-.34.34-.46.9-.69,1.33-.15.52-.51.81-.68,1.29-.2.44-.38.9-.66,1.23-.03.59-.38.83-.62,1.17-.14.44-.53.61-.57,1.09-.29.24-.29.75-.52,1-.1.38-.36.56-.45.9-.14.07-.2.21-.25.35s-.07.31-.12.43c-.13.04-.16.18-.15.34-.08.07-.05.25-.13.31-.05.23-.22.28-.18.51-.04.14.04.37-.06.36-.05.1-.04.25.04.45-.03.09,0,.22.13.44.06.15.1.27.25.48.15.21.12.22.21.35.15.18.24.29.31.36,0,0,.29.29.36.33.05.03.21.15.37.26s.33.21.4.21c.2.05.67.31.78.16.42.22.46,0,.6-.15.3,0,.61-.02.61-.4.16-.21.51-.27.63-.6,0-.44.5-.42.66-.76.25-.25.34-.69.7-.89.19-.36.47-.66.74-.97.34-.25.54-.66.8-1.01.23-.38.48-.76.86-1.01.11-.12.21-.23.32-.35s.22-.24.33-.36c.23-.24.46-.49.69-.75.28-.21.56-.43.73-.77.2-.3.38-.64.76-.79.44-.08.38-.66.78-.8.46-.07.65-.41.79-.8.31-.22.56-.51.8-.79.34-.19.47-.59.81-.78-.2.41-.29.91-.53,1.24-.2.37-.33.79-.45,1.21,0,.53-.45.59-.36,1.15.07.56-.12.82-.28,1.09-.05.38-.1.73-.2,1-.2.18-.15.57-.13.9.12.43-.04.55-.05.78-.08.44.24,1.13.19,1.3.18.41.12.46.55.9.03.05.78.73.76.58.56.43.36.06.84.35.67.17,1.23.28,1.54.22.31-.06.43-.22.44-.39,0-.16-.1-.33-.25-.4-.03-.17-.04-.38-.03-.61.01-.23.05-.5.1-.78-.01-.35.19-.54.22-.93-.07-.49.12-.76.32-1.05.22-.27.21-.8.41-1.15.02-.53.25-.86.48-1.22.29-.3.3-.89.53-1.27.11-.51.4-.84.58-1.29.29-.34.42-.84.6-1.29.24-.39.31-.95.62-1.26.04-.58.24-.99.61-1.2.06-.24.16-.43.27-.6s.23-.33.33-.52c-.16-.44.09-.42.12-.56.17,0-.12-.42-.09-.49-.15-.32-.39-.59-.65-.76-.17-.09-.73-.47-.96-.49-.19.03-.73-.26-.93-.23-.33-.1-.3.14-.55.02ZM130.13,24.43c-.08.46-.18.94-.3,1.42-.02.59-.2,1.04-.43,1.46-.37.28-.47.86-.55,1.47.04.73-.33,1.07-.64,1.46-.07.64-.76.67-.72,1.42-.23.49-.44.99-.78,1.36-.26.44-.4,1.01-.82,1.27-.29.4-.59.77-.85,1.16-.43.22-.47.81-.86,1.02-.16.14-.29.31-.42.46-.19.09-.28.28-.43.4-.18.09-.1.43-.4.37-.07.18-.23.26-.42.3.05.28-.1.34-.28.37-.05.16-.41-.01-.5.08-.26-.08-.15.2-.43.07-.19-.04-.06.23-.29.14-.15-.02-.05.19-.29.05-.11-.01-.37-.19-.35-.11,0,.06.05.17-.23-.08-.06-.02.06.11-.32-.27-.16-.16.02,0-.27-.33.12.08-.07-.17-.16-.33.09.01-.18-.36-.19-.48.02-.09-.29-.55-.11-.53-.05-.38.48-.18.43-.57.09-.25.06-.61.35-.65.24-.1.43-.24.41-.59.11-.22.05-.61.39-.6.16-.18.26-.4.37-.62s.24-.42.45-.54c.55-.11.51-.79.83-1.11.41-.23.59-.69.84-1.06.4-.23.37-.87.84-1.01.3-.31.49-.71.84-.95.13-.45.71-.45.83-.88.31-.25.5-.6.81-.81.29-.23.53-.5.79-.73,1.04-.92,2.01-1.62,2.86-2.04Z"/>
      <path class="cls-1" d="M297.81,3.44c-.31.38-.63.44-.93.11-.31.03-.61.39-.88.3-.27-.24-.52.59-.73.42-.21.22-.38.18-.49.48-.19.26.07.11.44.3.37-.1.85-.2,1.13-.11.04.2.08.03.1.18.02.23.04.15.04.26,0,.32,0,.41-.02.34-.01,0-.04.4-.07.41-.03.15-.07.31-.12.48-.05.16-.1.33-.16.5-.06.18-.13.36-.2.56-.07,0-.15.5-.24.61-.09.29-.18.65-.28.66-.1.3-.21.28-.32.71-.11.09-.23.69-.36.76-.12-.17-.25.51-.39.8-.14.27-.28.57-.42.85-.15.53-.3.39-.46.89-.16.32-.32,1.07-.49.92-.17.62-.34.96-.52.96-.18.36-.36.45-.55.99-.19.22-.38.91-.58,1.03-.2-.12-.4.54-.6,1.05-.2-.1-.41.58-.63,1.08-.21.7-.43.77-.65,1.11-.22.39-.44.53-.67,1.13-.23.56-.46.92-.69,1.15-.23.52-.47.74-.71,1.17-.24,0-.48.97-.73,1.18-.25.53-.5.94-.75,1.2-.25.54-.51.66-.76,1.21-.26.8-.52,1-.78,1.22-.26.64-.53.68-.79,1.23-.27.19-.53.72-.8,1.23-.27.56-.54,1.03-.81,1.23-.27.41-.55.95-.82,1.23-.28.5-.55.89-.83,1.23-.28.39-.56.71-.84,1.23-.28.43-.56.9-.84,1.22-.28.29-.56.97-.85,1.22-.28.39-.57,1.01-.85,1.2-.28.44-.57,1.01-.85,1.19-.28.39-.57.79-.85,1.18-.28.34-.57.75-.85,1.16-.28.38-.56.92-.85,1.14-.28.54-.56.91-.84,1.12-.28.64-.56,1.04-.84,1.1-.28.21-.55.53-.83,1.07-.28.54-.55.79-.82,1.04-.27.28-.54,1-.81,1.01-.27.43-.54.7-.8.98-.27.08-.53.71-.79.95-.26.15-.52,1.05-.78.91-.26.15-.51.1-.76.87-.25.08-.5.76-.75.83-.25.34-.49.53-.73.79-.24.26-.48.5-.71.74-.14.14-.27.28-.4.41s-.27.14-.4.39c-.13.11-.26-.35-.39.13-.13-.12-.26-.18-.38.61-.13-.01-.25.07-.37.57-.12-.07-.25.39-.37.1-.12.23-.24,0-.36.49-.12.21-.23-.08-.35.1-.12.43-.23.18-.34.39-.11.2-.22.31-.33.12-.11.19-.22.27-.32.38-.11-.02-.21.03-.31.05-.1.07-.2,0-.3.14-.1-.14-.2.36-.29.2-.1.08-.19.3-.28.2-.09.33-.18.2-.27.05-.18-.13-.35-.19-.51.17-.06-.16-.11-.16-.15-.08-.04.21-.07.18-.08-.23-.02-.25-.02-.18-.01-.37,0,.33.02-.18.05-.51.01-.36.03.17.05-.33.02.36.04-.15.06-.31.02-.48.05.07.08-.37.03.49.06-.21.09-.39.03-.24.07-.39.11-.44.04-.19.08.07.12-.44.04-.2.09.43.14-.34.05.12.1-.5.15-.65.05.42.11-.18.16-.43.03-.34.06-.36.09-.22.03-.2.06-.44.09-.44.03-.08.06-.37.09-.5.03-.08.06-.1.1-.13.07-.08.13-.16.2-.55.14-.71.29-.85.44-1.26.15-.46.32-1,.49-1.34.17-.41.35-.39.53-1.41.18-.41.37-.99.57-1.47.2-.33.4-.43.61-1.53.21-.53.43-1.27.65-1.58.22-.29.45-.86.68-1.62.23-.85.47-.65.71-1.65.24-.68.49-1.04.74-1.68.25-.43.51-1.16.77-1.7.26-.78.53-1.18.8-1.71.18-.46.36-.53.54-1.13.18-.26.36-1,.55-1.13.18-.15.37-.66.55-1.12.19-.76.37-.4.56-1.12.19-.44.38-.45.57-1.11.19-.54.38-.55.57-1.1.19-.69.38-.66.57-1.09.19.05.38-.74.58-1.08.19-.19.38-.51.58-1.06.19.06.38-.71.58-1.05.19-.9.38-.45.57-1.03.19-.22.38-.65.57-1.01.19-.41.38-1.02.57-.98.19.37.38-.63.56-.96.19-.17.37-1.11.56-.93.18-.45.37-.54.55-.9.18-.3.36-.87.54-.87.18-.31.36-.29.53-.83.28-.2.42-.11.45-.51.03-.39-.04-.44-.19-.68-.14-.23-.36-.46-.61-.65-.25-.19-.54-.34-.83-.42-.41-.15-.88-.14-1.35-.16-.46-.28-.92-.04-1.32.13-.4-.23-.73-.17-.94.31-.21.03-.3-.35-.22.39-.08.48-.17.11-.26.32-.09.61-.19.1-.29.36-.1.05-.21-.3-.32.4-.11.11-.22.89-.34.44-.12.33-.24.34-.37.48-.13.15-.26-.23-.39.52-.14-.26-.27.49-.42.56-.14.27-.29.29-.44.59-.15.32-.31.25-.47.63-.16.33-.33.36-.5.67-.17.09-.34.64-.52.7-.18.33-.36.57-.55.73-.19.3-.38.45-.57.77-.2.38-.4.57-.6.8-.2.49-.41.31-.62.83-.21.25-.43.64-.65.86-.22.27-.45.55-.68.89-.23.43-.46.63-.7.92-.24.38-.48.69-.73.95-.25.3-.5.58-.75.98-.26.45-.51.81-.78,1-.26.43-.53.41-.8,1.03-.27.12-.55.43-.83,1.06-.28.24-.57.55-.86,1.08-.29.53-.58.73-.88,1.1-.3.63-.6.91-.91,1.13-.31.42-.62.85-.93,1.15-.31.33-.63.57-.96,1.17-.32.75-.65,1.01-.98,1.19-.33.83-.67.97-1.01,1.21-.34.56-.69.93-1.03,1.23-.35.6-.7.57-1.06,1.25-.36.78-.72,1.04-1.09,1.26-.37.78-.74,1.05-1.11,1.28-.37.75-.75.77-1.14,1.3-.38.45-.77.87-1.16,1.31-.39.46-.79.86-1.19,1.33-.4.21-.8.79-1.21,1.34-.41.39-.82,1.02-1.24,1.35-.42.91-.84,1.1-1.26,1.36-.43.84-.85,1.26-1.29,1.37-.1.09-.2.2-.3.31s-.2.23-.31.33c-.1.16-.2.36-.31.39-.1-.04-.21.2-.31.26-.21.09-.41.51-.62.74-.21,0-.42.44-.63.55-.14.08-.28.36-.42.64-.14.27-.28.46-.42.48-.14.06-.28.31-.42.18-.21.31-.43.54-.64.75s-.43.4-.65.56c-.43.37-.87.76-1.31,1.32.06-.27.12-.55.18-.83.07-.26.14-.59.21-.85.07-.09.15-.29.24-.87.08-.67.17-1.26.26-.89.05-.23.09-.4.14-.54s.1-.26.15-.37c.05,0,.1.02.15-.32.05-.12.1-.63.16-.61.05-.28.11-.47.16-.69.06-.36.11-.17.17-.26.06-.18.11-.32.17-.53.06-.15.12-.59.18-.44.06,0,.12-.38.18-.46.06-.17.13-.34.19-.52.06-.11.13-.07.2-.51.07-.44.13-.54.2-.48.07-.29.14-.53.21-.58.07-.34.14-.4.21-.42.07.11.14-.69.22-.6.07-.25.15-.21.22-.42.07,0,.15-.23.23-.45.08-.07.15-.4.23-.58.08.24.16-.47.24-.44.08,0,.16-.45.24-.61.08-.01.16-.58.24-.37.08-.05.17-.53.25-.69.08.06.17-.27.25-.64.09,0,.17-.29.26-.43.09-.28.17-.46.26-.64.09-.23.18-.74.27-.44.09-.41.18-.25.27-.63.09-.4.18-.54.27-.45.09-.42.18-.23.28-.56.09,0,.19-.65.28-.53.09-.31.19-.01.29-.64.1.07.19-.3.29-.46.1-.39.2.04.29-.49.1-.14.2-.74.3-.62.1-.27.2-.53.3-.59.1-.41.2-.36.3-.53.1-.12.2-.28.31-.43.1-.28.21-.37.31-.69.1-.2.21-.64.31-.73.11-.44.21-.86.32-.4.11-.2.21-.52.32-.43.11-.15.22-.23.32-.7.11-.2.22-.4.33-.57.11.59.22-.27.33-.57.11-.18.22-.25.33-.7.11-.03.22-.23.33-.44.11-.56.22-.35.34-.53.11-.02.23-.15.34-.61.11-.41.23-.29.34-.59.11-.07.23-.62.35-.55.12-.51.23-.47.35-.75.12.15.23-.21.35-.4.12-.21.23-.29.35-.62.12-.23.24-.47.35-.52.12-.12.24-.36.36-.64.12.21.24-.35.36-.5.12.03.24-.38.36-.59.12-.42.24-.11.36-.55.12-.47.24-.34.36-.68.12-.04.24-.01.37-.46.12-.23.24-.86.37-.77.12-.11.25-.39.37-.37.12.07.25-.05.37-.5.12-.31.25-.43.37-.63.12-.28.25-.62.37-.6.12.05.25-.61.37-.52.13.02.25-.98.38-.54.13-.31.25-.19.38-.58.13-.23.25-.29.38-.56.13-.52.25-.47.38-.55.13.01.25-.44.38-.47.13-.16.25-.31.38-.64.13.32.25-.5.38-.49.13-.34.25-.73.38-.61.13.06.26-.47.38-.53.13,0,.26-.58.38-.56.13-.23.26-.58.38-.69.13-.2.26-.02.38-.4.13-.24.26-.46.38-.41.13-.41.26-.67.38-.67.13-.13.26-.14.38-.46.13-.05.26-.34.39-.61.13-.14.26-.26.39-.43.13-.24.26-.25.39-.62.13-.23.26-.35.38-.49s.26-.27.38-.56c.26-.37.51-.6.77-1.03.26-.24.51-.88.77-1.02.26-.45.51-.36.76-1,.25-.32.51-1.02.76-.99.28,0,.29-.31.13-.48-.17-.53-.5-.51-.9-.75-.2-.12-.41-.22-.63-.31-.22-.06-.43-.21-.64-.18-.17.06-.34.04-.52-.05-.18.06-.36-.2-.54,0-.18-.11-.36.09-.54.04-.18.12-.35.16-.52.09-.17-.06-.34.04-.49.04-.16-.02-.31.04-.45.27-.11-.05-.18-.06-.25.13-.06.19-.11.36-.16.28-.05.17-.1.31-.16.31-.06.23-.14.25-.25.22-.1.17-.19.06-.29.12-.1.12-.19.35-.29.39-.1-.16-.2.13-.3.15-.1.15-.2.47-.3.4-.1.33-.2-.26-.31.21-.1.16-.21-.12-.31.39-.1-.09-.21.31-.31.35-.11.14-.21-.22-.32.29-.11-.22-.21.26-.32.32-.11.43-.22,0-.33.37-.11-.05-.22-.04-.33.38-.11.3-.22.02-.33.34-.11.14-.22.62-.34.44-.11.44-.23.61-.34.32-.11.23-.23.16-.34.36-.11.15-.23.06-.34.44-.12-.15-.23.4-.35.39-.12-.03-.23.54-.35.44-.12.4-.23.24-.35.44-.12.23-.24.41-.35.43-.12-.13-.24.11-.36.4-.12.13-.24.39-.36.5-.12-.04-.24.31-.36.51-.12.27-.24.4-.36.42-.12.32-.24.53-.36.48-.12.11-.24.46-.37.48-.12-.12-.23.13-.35.46-.12.13-.23.31-.35.47-.11.25-.23.35-.34.48-.11.36-.23.42-.34.45-.11-.04-.23.8-.34.46-.11.4-.23.33-.34.49-.11.31-.23.16-.34.44-.11.41-.23.47-.34.53-.11.31-.23.61-.34.5-.11.29-.23.26-.34.49-.11-.13-.23.3-.34.52-.11.09-.23.35-.34.48-.11.06-.23.21-.34.49-.11.21-.23.45-.34.53-.11.25-.23.6-.34.56-.11.42-.23.48-.34.48-.11.33-.23.5-.34.57-.11-.07-.23.33-.34.48-.11.15-.23.56-.34.5-.11.13-.23.48-.34.57-.11.28-.23.35-.34.55-.11.25-.23.46-.34.53-.11.27-.22.53-.34.61-.11.21-.22.04-.34.47-.11.02-.22.47-.33.59-.11.02-.22.59-.33.51-.11.16-.22.3-.33.6-.11.17-.22.26-.33.51-.11.48-.22.53-.33.53-.11,0-.22.1-.33.58-.11.09-.22.49-.32.62-.11.31-.22.29-.32.5-.05.2-.11.33-.16.28-.05-.17-.11.02-.16.26-.05.19-.11.19-.16.27-.05-.06-.11.19-.16.31-.05.07-.11.21-.16.21-.05.04-.1,0-.16.34-.05.31-.1.21-.16.32-.05.02-.1.2-.16.25-.05.33-.1.16-.16.4-.05,0-.1.06-.15.17-.05.19-.1.29-.15.3-.05.1-.1.19-.15.26-.1.22-.2.3-.3.54-.1.31-.2.32-.3.58-.1.26-.2.1-.3.54-.1.36-.2.61-.3.58-.1.28-.2.4-.29.57-.1.27-.19.57-.29.55-.1.31-.19.39-.29.56-.09.07-.19.14-.28.56-.09.15-.19.33-.28.5-.09.17-.18.44-.28.62-.09.37-.18.38-.27.64-.09.32-.18.4-.27.47-.09.28-.18.5-.26.56-.09.15-.17.16-.26.54-.09.2-.17.65-.26.57-.08.4-.17.46-.25.53-.08.15-.16.62-.25.63-.08.18-.16.21-.24.46-.08.01-.16.39-.24.43-.08.09-.16.43-.23.65-.08.1-.15-.15-.23.44-.08.25-.15.79-.22.63-.07.25-.15.03-.22.64-.07.01-.14.29-.21.42-.07,0-.14.38-.21.56-.07.23-.14.33-.2.48-.07.28-.13.37-.2.52-.06.12-.13.44-.19.5-.06.19-.12.36-.19.49-.06,0-.12.64-.18.53-.06.38-.12.27-.17.55-.06.16-.11.54-.17.44-.05.34-.11.32-.16.45-.05.41-.1.44-.16.52-.05.29-.1.33-.15.47-.05.18-.1.25-.14.48-.05.15-.09.25-.14.49-.04.34-.09.44-.13.44-.08.21-.15.59-.22.81-.07.31-.14.62-.2.88-.06.24-.12.09-.18.63-.05.3-.1,1.13-.15.96-.05.3-.09,0-.12.63-.04.58-.07.67-.1.85-.03.2-.05.43-.07.67s-.03.48-.04.69c-.02.28-.01.55,0,1.23.02.56.07.7.13,1.1.07.05.15.28.26.95.11.3.24.83.4.8.16,0,.33.2.54.64.2.17.43.25.69.47.25.27.53.39.84.29.31.06.64.1,1,.1.25,0,.5-.04.75-.11.25-.18.49-.05.73-.28.24-.23.48-.12.72-.4.24-.38.48-.2.73-.46.12.12.25-.51.38-.26.13-.06.28-.22.43-.33.15.09.31-.05.48-.39.17-.15.34-.37.52-.45.18-.13.37-.18.56-.51.19.14.4-.32.6-.56.21-.52.42-.38.64-.62.22.01.45-.83.68-.67.23-.1.47-.42.71-.72.24-.05.49-.36.74-.76.25-.6.51-.6.77-.81.26-.46.53-.93.8-.85.27-.47.55-.44.83-.89.28-.23.56-.81.85-.92.29-.45.58-.6.87-.96.29-.56.59-.78.89-.99.3-.36.6-.75.91-1.02.3-.4.61-.78.92-1.04.31-.04.62-.75.93-1.07.31-.68.63-.67.94-1.09.32-.35.63-.89.95-1.11.32-.54.64-1.1.96-1.12.32-.49.64-.79.96-1.14.32-.47.64-.86.96-1.15.32-.3.64-.79.96-1.16.32-.29.64-.88.96-1.16.32-.38.64-1.12.96-1.17.32-.61.64-.62.95-1.17.16-.13.32-.26.47-.44.08-.09.16-.12.24-.22.08-.13.16-.12.23-.51.08-.29.16-.08.23-.21.08-.15.16-.21.23-.33.08.13.15-.34.23-.46.08.08.15.3.23-.16.15-.4.31-.19.46-.37.08.35.15.13.23-.35.08-.36.15-.44.23-.43.08.34.15-.04.23-.18.08-.19.15-.03.23-.27.08-.42.15-.3.22-.23.07-.35.15-.49.22-.46.07-.35.15-.26.22-.38.07-.61.15-.32.22-.41.15-.12.29-.62.44-.35.07-.15.15-.22.22-.44.07-.15.14-.05.22-.34.14-.19.29-.31.43-.34.28-.36.57-.91.84-1.11-.22.43-.43.89-.65,1.47-.05.09-.11.26-.16.34-.05.18-.11.38-.16.41-.05-.05-.11.66-.16.36-.05-.12-.11.18-.16.39-.05-.33-.1.35-.16.48-.05.25-.1.92-.16.48-.05-.04-.1-.13-.16.3-.05.09-.1.14-.15.26-.05.18-.1.79-.15.52-.05-.31-.1,0-.15.39-.05.34-.1-.04-.15.22-.05.08-.1-.12-.15.41-.05.09-.1.12-.15.09-.05.14-.1.41-.15.62-.05.82-.1.46-.14.43-.05-.24-.1-.37-.14.42-.05.18-.09-.04-.14.28-.05.06-.09.63-.14.46-.05.03-.09.24-.14.44-.05-.05-.09.36-.14.38-.05.69-.09.16-.13.28-.04.32-.09.16-.13.42-.04-.3-.09.71-.13.35-.04.32-.09.89-.13.5-.04.2-.09.28-.13.35-.04.51-.08.46-.13.47-.04.29-.08.69-.12.49-.04-.11-.08-.02-.12.23-.04.18-.08.21-.12.48-.04-.31-.08.61-.12.25-.04-.04-.08.64-.11.32-.04.39-.07.71-.11.47-.04-.28-.07.14-.11.35-.04.11-.07.38-.11.47-.04.22-.07.5-.1.42-.03.2-.07.66-.1.26-.03.06-.07.24-.1.33-.03.16-.06.32-.1.42-.03-.03-.06.1-.09.29-.03-.27-.06,1.02-.09.41-.03.06-.06.6-.09.29-.03.23-.06.62-.08.43-.03.62-.06.29-.08.23-.01.09-.03.23-.04.43-.01.25-.03.39-.04.04-.03-.31-.06-.21-.09.06-.03.4-.06.57-.09.67-.03-.09-.06.08-.08.62-.03.12-.05.57-.08.3-.03.24-.05.56-.07.75-.02,0-.05-.26-.07.11-.02-.19-.04.11-.06.42-.02.02-.04.35-.06.29-.02.13-.04.15-.05.31-.02-.09-.03-.11-.05.48-.01.29-.03.3-.04.21-.01-.15-.02.39-.04.49-.01.37-.02.53-.03.3,0,0-.02-.12-.02.34,0,.09-.01-.21-.02.23,0-.07,0,.51-.01.51,0,.2,0,.02,0,.39,0,.14,0,.28,0,.34,0,.38,0,.63.02.53,0,.45.01.53.02.49,0-.05.02.36.03.29.02.24.04.18.07.34.03.32.06.45.1.68.04.22.08.32.13.31.05.21.1.24.15.4.06.14.12.28.18.43.13.25.29.47.46.66.87.95,2.27,1.14,4.32.31.36-.14.74-.33,1.15-.55.2-.11.41-.33.62-.37.21-.05.43-.31.65-.42.22-.06.45-.44.68-.48.23-.39.47-.3.7-.53.24-.11.48-.06.73-.58.25-.34.5-.1.75-.63.26-.09.51-.61.78-.68.13-.14.26-.22.4-.32.13-.09.27-.15.4-.4.13.02.27-.17.41-.35.14-.05.27-.22.41-.41.14-.34.28-.43.42-.49.14.1.28-.49.42-.31.14-.14.28-.23.42-.43.14-.45.28-.11.43-.41.14-.17.29-.41.43-.51.14-.16.29-.29.44-.38.15-.28.29-.29.44-.49.15-.13.29-.26.44-.43.15-.05.3-.34.44-.49.15,0,.3-.44.45-.46.15-.37.3-.37.45-.62.15-.02.3-.47.45-.37.15-.4.3-.75.46-.64.15-.13.3-.27.46-.38.15-.18.31-.29.46-.52.08-.09.15-.26.23-.38.08-.17.15-.28.23-.14.08.04.15-.21.23-.36.08.09.15-.28.23-.23.08-.43.15-.43.23-.24.08-.11.15-.1.23-.24.08-.26.16-.37.23-.44.08-.37.16.29.23-.11.08-.02.16-.33.23-.34.08.16.16-.24.23-.21.14.26.29-.4.43-.46.14.07.29-.25.43-.58.14-.08.29-.41.43-.44.14-.17.29-.35.43-.62.14-.32.29-.31.44-.36.15-.38.29-.37.44-.71.15-.19.29-.32.44-.46.14-.04.29-.56.43-.63.14.11.29-.02.43-.33.14-.05.29-.46.43-.77.14.03.29-.48.43-.57.14-.39.29-.78.43-.55.14-.14.29-.48.43-.45.14-.36.29-.52.43-.68.14,0,.29-.09.43-.49.14-.46.29-.41.43-.64.14-.08.28-.06.43-.66.14-.27.28-.41.42-.49.07-.11.14-.11.21-.16s.14-.14.21-.41c.07.07.14.11.21-.24.07.03.14.04.21-.34.15-.24.3-.5.45-.71.15-.37.3-.76.45-.53.15-.04.3-.45.44-.68.15-.07.29-.26.44-.56.15-.09.29-.41.44-.55.14-.33.29-.44.43-.69.14-.17.29-.42.43-.58.14-.07.28-.41.43-.66.14-.18.28-.53.42-.65.14.01.28-.29.42-.59.14-.76.28-.33.41-.64.14.23.27-.27.41-.6.14-.26.27-.08.41-.62.13-.25.27-.09.4-.62.13-.04.26-.45.4-.63.13-.58.26-.78.39-.6.13-.16.26-.23.39-.59.13-.37.25-.45.38-.63.13-.26.25-.65.38-.62.12-.02.25-.82.37-.6.12-.21.24-.21.36-.59.12-.64.24-.65.36-.61.27-.25.53-.75.78-1.33.26-.41.5-1.09.75-1.31.24-.24.48-.96.71-1.29.23-.56.46-.94.68-1.27.22-.27.43-.88.64-1.24.21-.55.4-.63.59-1.21.19-.34.37-1.11.55-1.18.18-.1.34-.82.51-1.14.16-.8.31-1,.46-1.1.14-.33.28-.86.41-1.06.13-.49.25-.41.36-1.02.11-.69.21-.94.3-.98.09-.04.17-.76.25-.93.07-.54.14-.4.19-.88.05-.23.1-.63.13-.83.03-.1.06-.15.07-.77.02-.5,0-1.26-.08-1.09-.07-.28-.18-.68-.33-.97-.15-.53-.34-.62-.56-.81-.22-.09-.48-.38-.76-.62-.28.48-.59-.3-.93-.4-.33-.16-.69-.01-1.06-.14Z"/>
      <path class="cls-1" d="M160.36,17.45c.35.04.63-.05.57-.39-.01-.15.05-.21-.1-.43-.04-.12-.02-.14-.21-.32-.13-.05-.09.06-.33-.1-.21-.13-.41-.25-.43-.19-.19-.1-.37-.2-.4-.14-.11-.03-.23-.06-.41-.14-.42-.24-.6-.23-.84-.28-.33-.14-.55-.15-.88-.27-.31-.11-.69-.27-.91-.27-.29-.07-.68-.22-.95-.26-.24,0-.67-.19-.98-.25-.18-.05-.35-.1-.52-.14-.16-.04-.39-.13-.49-.1-.08.06-.29-.02-.49-.09-.17-.03-.32-.05-.55-.14-.16-.02-.39-.11-.53-.12-.14,0-.4-.11-.54-.11-.48-.21-.75-.21-1.02-.21-.4-.13-.72-.16-1.04-.2-.34-.05-.72-.14-1.06-.19-.28.02-.66-.07-1.09-.19-.49-.19-.83-.21-1.11-.18-.24.08-.77-.14-1.13-.17-.33,0-.82-.17-1.14-.17-.38-.05-.77-.1-1.16-.16-.39-.05-.81-.13-1.18-.15-.41-.07-.78-.08-1.2-.14-.4-.04-.79-.08-1.21-.14-.51-.14-.92-.19-1.22-.13-.47-.1-.71.03-1.24-.12-.29.08-.74,0-1.25-.12-.38,0-.77,0-1.26-.11-.56-.18-.88-.11-1.27-.1-.3.1-.76.03-1.28-.09-.52-.12-1.07-.26-1.29-.09-.37.03-.92-.1-1.3-.08-.45-.04-.83,0-1.3-.07-.32.09-.89-.06-1.31-.06-.47-.05-.71.12-1.32-.05-.26-.05-.5-.08-.72-.09-.21,0-.35.08-.6.04-.12.1-.34.08-.63,0-.42-.2-.37.06-.69-.04-.08.14-.55-.12-.65,0-.41-.19-.5-.07-.67-.02-.2.02-.44,0-.66-.01s-.44,0-.66,0c.17-.29.35-.59.52-.88.1-.37.36-.57.52-.88.06-.41.25-.68.52-.87.12-.11.19-.27.26-.44s.14-.32.26-.43c.15-.08.31-.15.34-.35.12-.11.11-.35.18-.51.09-.14.25-.21.2-.49.24,0,0-.47.32-.37-.04-.28.06-.41.19-.49.07-.15.12-.31.18-.44.12-.08.3-.08.16-.4-.1-.28-.17-.5-.04-.52.09-.06-.1-.39-.02-.43.04-.08-.03-.27-.08-.42-.1-.2-.2-.38-.1-.36-.04-.12-.08-.22-.19-.37.04-.02,0-.1-.26-.37-.08-.09-.2-.19-.36-.31-.14-.1-.29-.18-.44-.24s-.28-.06-.37,0c-.16.23-.32.48-.53.7-.17.25-.5.36-.56.76-.28.18-.43.5-.59.82-.24.24-.47.51-.62.88-.17.35-.53.51-.64.94-.4.14-.3.8-.67.99-.07.5-.52.62-.69,1.04-.2.39-.23.96-.71,1.09-.3,0-.13.49-.36.56-.04.27-.16.46-.37.58-.11.21-.24.39-.38.58s-.27.37-.36.61c-.56-.1-.79.13-1.37.02-.47,0-1.01-.09-1.36.03-.21.26-.66.27-1.36.04-.29.18-.77.16-1.35.05-.26.21-1.12-.19-1.34.06-.27.2-.74.2-1.34.07-.34.12-.83.11-1.33.08-.44.03-1.17-.23-1.32.08-.56-.09-.67.27-1.31.09-.44.03-1.02-.08-1.29.1-.31.16-.77.17-1.28.11-.49-.02-.82.11-1.27.13-.35.11-.75.17-1.25.14-.32.14-.81.11-1.23.15-.51-.05-.73.19-1.22.16-.42.03-.81.1-1.2.17-.36.09-.81.1-1.18.18-.37.08-.64.25-1.16.19-.43.01-.56.34-1.14.2-.32.12-.78.1-1.11.21-.47-.03-.76.11-1.09.22-.48-.04-.82.05-1.07.23-.26.17-.66.2-1.04.24-.35.08-.83.02-1.01.25-.34.08-.64.2-.99.27-.3.11-.6.23-.96.28-.3.11-.52.3-.93.29-.41.23-.87.45-1.29.68-.3.36-.76.57-.95,1-.35.28-.23.99-.61,1.15,0,.52-.21.8-.25,1.14.28.66.16.83.11.95.25.42.59.81.48.6-.09-.19.55.2.86.08.27,0,.53,0,.65-.16.14-.13.27-.27.65-.17.02-.26.71.16.65-.18.18-.3.95,0,1.14-.29.31-.17.69-.27,1.15-.28.68.21.96.01,1.16-.27.33-.15.94-.01,1.17-.26.23-.25.88-.07,1.17-.25.48,0,.75-.2,1.18-.24.38-.09.72-.22,1.19-.23.28-.19.76-.18,1.2-.22.47,0,.78-.16,1.2-.21.31-.16.72-.22,1.21-.2.4-.07.72-.22,1.21-.19.32-.15.98.05,1.22-.18.53.07.7-.22,1.22-.17.4-.06,1.02.09,1.22-.16.52.06.94.02,1.23-.15.41-.04,1.01.1,1.23-.14.49.04.83-.08,1.23-.13.21-.24.86-.05,1.23-.13.48.03.63-.27,1.23-.12.34-.1.74-.16,1.23-.11.04-.19.29-.15.62-.05.03-.19.28-.17.62-.05.18-.04.39-.06.6-.07s.43-.02.63-.03c.55.11.9.02,1.23-.09.46.02.78-.09,1.23-.08,0,.35-.16.57-.41.71-.09.3-.48.31-.46.75-.17.25-.36.5-.51.79-.04.4-.55.36-.55.83-.21.26-.49.47-.59.87-.32.18-.43.58-.63.9.03.55-.59.46-.67.93-.05.5-.47.62-.7.96-.15.41-.64.49-.74.98-.22.36-.41.76-.77,1-.26.34-.37.84-.8,1.02-.46.15-.68.55-.82,1.04-.27.36-.58.68-.85,1.06-.13.51-.46.82-.87,1.07-.24.41-.57.73-.89,1.08-.33.33-.59.73-.9,1.09-.34.33-.6.74-.92,1.09-.31.37-.55.8-.93,1.1-.28.4-.61.75-.94,1.1-.25.43-.58.79-.95,1.1-.36.32-.52.85-.96,1.09-.3.39-.57.79-.96,1.09-.19.49-.69.67-.96,1.08-.34.34-.74.61-.96,1.07-.22.45-.76.58-.96,1.05-.42.25-.64.68-.95,1.04-.48.18-.71.6-.94,1.02-.38.27-.63.67-.93,1-.36.28-.52.75-.92.97-.34.29-.5.75-.91.95-.1.51-.75.47-.89.92-.24.35-.49.7-.87.89-.41.17-.61.54-.85.86-.41.15-.65.46-.83.82-.27.26-.62.45-.8.78-.19.33-.5.52-.77.74-.25.24-.5.47-.74.7-.97.9-1.85,1.69-2.62,2.33.1-.36.22-.73.35-1.11s.26-.77.41-1.16c.2-.34.31-.79.46-1.21.11-.46.29-.87.51-1.24.37-.22.37-.83.55-1.27.34-.28.32-.92.58-1.29.13-.5.46-.81.61-1.3.15-.49.55-.74.63-1.31.19-.45.52-.77.64-1.3.12-.53.33-.96.64-1.29.18-.46.34-.93.63-1.26.56-.07.33-.91.62-1.23.08-.53.37-.84.6-1.19.15-.44.36-.8.57-1.14.18-.38.33-.77.54-1.09.16-.36.05-.98.5-1.02.08-.4.19-.76.45-.95.09-.36.2-.66.39-.86.02-.37.13-.63.33-.77.33-.01.06-.59.25-.67.07-.21.13-.4.17-.56.04-.17.07-.32.09-.45.04-.4.02-.77-.07-1.11s-.34-.76-.41-.91c-.09-.17-.36-.46-.69-.73-.31-.26-.66-.48-.92-.56-.28-.1-.58-.17-1.08-.39-.46-.18-.83-.23-1.19-.23-.6-.24-.95-.2-1.23-.08-.49-.08-.97-.12-1.22.07-.27.17-.92-.03-1.14.2-.6-.15-.84.06-1.01.33-.3.14-.45.41-.82.45-.14,0-.01.3-.16.33-.21-.03-.16.22-.21.39-.08.14-.17.29-.26.44-.09.15-.19.3-.29.46-.44-.17-.19.35-.33.51.02.31-.15.45-.37.55-.09.23-.36.3-.41.59-.3.05-.13.58-.45.63-.11.27-.61.15-.49.67-.14.26-.32.49-.53.71-.35.07-.3.56-.56.74-.33.12-.54.37-.59.78-.2.26-.63.31-.63.81-.39.1-.57.41-.66.84-.44.07-.66.36-.69.87-.17.36-.22.85-.72.89-.28.27-.26.84-.75.92-.12.44-.78.36-.77.94-.16.42-.66.5-.8.96-.17.42-.68.51-.82.98-.19.42-.45.78-.85,1-.1.21-.27.35-.44.49-.22.09-.33.3-.43.52-.24.07-.38.25-.5.45s-.22.42-.39.58c-.17.48-.61.68-.91,1.04-.36.3-.57.75-.93,1.06-.29.37-.38.95-.95,1.06-.44.24-.55.81-.96,1.07-.13.55-.81.56-.98,1.08-.4.29-.47.91-.99,1.08-.38.32-.68.71-1,1.09-.24.45-.85.55-1.01,1.09-.34.36-.52.89-1.03,1.09-.11.24-.3.4-.5.56-.24.12-.5.21-.54.52-.26.09-.53.17-.53.53-.12.24-.05.66-.51.55-.18.17-.42.29-.54.52-.09.27-.24.47-.51.55-.16.2-.49.22-.56.5-.26.09-.22.49-.5.56-.08.28-.33.38-.51.55-.19.17-.38.32-.55.51.04-.16.1-.31.15-.46,0-.19.13-.28.12-.5.07-.14.21-.2.17-.45.05-.16.16-.26.1-.52.08-.13.17-.25.11-.52.03-.18.15-.27.17-.46.13-.08.02-.4.18-.46-.07-.29-.01-.44.11-.53.14-.08.18-.25.23-.43.12-.1.1-.34.07-.58.12-.1.16-.28.13-.53-.01-.23.14-.31.18-.49-.05-.27.06-.39.17-.51-.03-.26.18-.27.15-.53.19-.04.03-.43.16-.53-.03-.26.13-.33.17-.53.09-.33.15-.71.31-.98.07-.37.26-.62.33-.99.19-.25.2-.69.34-1.01.08-.37.06-.85.35-1.02.25-.21.09-.84.36-1.04.26-.22.38-.57.38-1.06.09-.39.43-.54.39-1.08.22-.28.53-.47.41-1.1.1-.16.14-.37.19-.57.03-.23.27-.24.23-.54-.04-.3.19-.33.23-.55.15-.11.25-.28.21-.58.23-.04.15-.39.23-.58.08-.19.15-.39.23-.58.37-.04.73-.08,1.09-.12.48.08.63-.15,1.06-.11.31-.07.58-.17,1.03-.09.49.12.63-.1.99-.08.32-.03.43-.26.96-.07.27-.06.53-.12.92-.06.32,0,.43-.2.88-.04,0-.16.03-.25.05-.35s.02-.19-.06-.33c.01-.06-.03-.15-.16-.3-.11-.13-.18-.21-.26-.27-.5-.48-.35-.25-.61-.39-.1.03-.64-.35-.84-.33-.51-.29-.63-.15-1.05-.27-.41-.11-.58.07-1.25-.22-.36.02-1.07-.26-1.44-.16.18-.24.32-.52.38-.89.14-.28.27-.59.39-.9.2-.23.27-.6.4-.92.25-.19.33-.56.41-.93.07-.16.14-.31.21-.47s.07-.38.21-.47c.08-.36.43-.45.42-.92.06-.39.45-.45.43-.93.23-.23.4-.52.44-.94.23-.23.28-.65.45-.95.1-.37.29-.66.46-.97.02-.46.27-.69.47-.98.1-.39.58-.41.49-.99.2-.3.31-.69.5-1.01.19-.31.36-.66.51-1.02.1-.42,0-1.03.52-1.03.02-.5.08-.97.54-1.05.22-.31.49-.58.55-1.06.11-.43.43-.66.56-1.08.09-.46.28-.83.58-1.09.29-.27.34-.78.59-1.11.18-.39.23-.91.61-1.12-.04-.62.6-.56.62-1.14.46-.13.22-.97.63-1.15.38-.22.58-.63.65-1.17.06-.55.41-.81.66-1.18.29-.33.46-.78.68-1.2.21-.42.44-.83.69-1.22.07-.57.42-.87.71-1.23.14-.51.42-.89.73-1.25.49-.18.61-.73.74-1.27.05-.38.12-.67.12-.98-.2-.5-.04-.57-.29-.99-.1-.27-.31-.57-.62-.91-.1-.13-.5-.48-.87-.74-.38-.27-.87-.56-1.04-.48-.04.22-.91-.31-1.13-.12-.33.08-.7.2-1.15.32-.3.22-.67.38-.93.65-.16.11-.31.22-.47.33s-.31.22-.47.33c-.18.35-.57.51-.94.68-.4.14-.6.49-.94.69-.4.14-.46.63-.94.7-.42.13-.68.42-.94.71-.41.14-.67.44-.94.72-.4.15-.56.56-.94.73-.32.24-.66.46-.94.74-.61-.05-.78.34-.94.75-.21.35-.48.65-.94.76-.14.43-.62.52-.94.77-.38.19-.52.63-.93.78-.36.21-.68.47-.93.79-.29.28-.63.52-.93.8-.32.26-.68.47-.93.8-.3.28-.64.52-.93.81-.25.33-.64.52-.93.82-.53.05-.8.37-.92.83-.17.41-.99.18-.92.83-.08.5-.55.62-.92.84-.28.3-.76.42-.91.84-.39.19-.64.53-.91.85-.3.29-.48.7-.91.86-.28.31-.74.44-.9.86-.1.49-.54.64-.9.87-.3.29-.79.39-.9.87-.37.22-.84.34-.89.87-.45.14-.52.66-.89.88-.3.29-.57.61-.88.88-.43.16-.67.5-.88.88-.17.41-.51.67-.87.89-.27.31-.54.63-.87.89-.26.32-.61.56-.86.89-.27.31-.51.66-.86.89-.28.3-.47.69-.85.9-.19.39-.57.6-.84.9-.23.35-.5.66-.84.9-.35.23-.61.55-.83.9-.28.3-.52.63-.82.9-.23.35-.63.51-.82.9-.23.34-.43.71-.81.9-.22.35-.57.56-.8.9-.38.18-.4.73-.8.9-.11.17-.17.39-.27.58-.12.16-.25.31-.52.32-.28,0-.43.13-.54.3.01.29.05.61-.24.6-.08.18-.28.24-.65.12-.09.17-.41.11-.65.12-.35-.09-.11.41-.64.13-.13.13-.48.04-.65.13-.39-.13-.5.01-.64.13-.56-.3-.33.18-.64.13-.17.34-.92.1-1.26.27-.52,0-.99.04-1.25.28-.17.34-1.04-.02-1.23.29-.45.06-.86.15-1.21.3-.34.16-.6.4-1.19.31-.29.2-.73.26-1.16.31-.61-.12-.93.04-1.14.32-.4.08-.76.2-1.11.33-.42.06-.75.2-1.08.34-.14.32-.91.02-1.05.34-.2.26-.88.03-1.01.35-.26.19-.64.25-.97.36-.3.14-.87,0-.93.36-.22.2-.29.56-.89.37-.74.04-1.05.5-1.59.72-.36.4-1.07.44-1.5.74-.49.24-1.07.39-1.4.76-.46.24-1.03.36-1.29.77-.45.22-.73.59-1.18.78-.32.31-.54.71-1.06.79-.3.3-.47.69-.93.78-.22.33-.39.68-.79.78-.21.29-.71.26-.65.76-.09.35-.32.54-.49.75-.05.33-.44.3-.33.72.12.44-.06.55-.17.69-.11.14-.09.39,0,.66.06.15-.05.12.03.28,0,.07-.09.05.16.34.18-.04.31-.12.44-.21s.27-.17.45-.2c.27-.17.65-.23.92-.41.47.02.6-.3.95-.41.42-.03.73-.19.97-.4.14-.32.66-.27,1-.4.42-.05.74-.2,1.02-.4.31-.16.76-.19,1.04-.39.33-.15.59-.37,1.06-.39.29-.19.76-.22,1.08-.39.4-.1.62-.37,1.1-.38.39-.11.67-.33,1.12-.38.37-.13.73-.28,1.14-.38.33-.18.91-.11,1.15-.37.37-.15.83-.19,1.17-.37.41-.1.77-.26,1.18-.36.47-.05.89-.15,1.2-.36.38-.14.85-.19,1.21-.36.45-.07.91-.14,1.22-.35.66.14.83-.22,1.23-.35.32-.2.79-.26,1.24-.34.37-.15.87-.19,1.25-.34.36-.16.84-.21,1.25-.33-.27.19-.47.44-.6.76-.11.34-.39.51-.6.75-.02.43-.55.34-.59.75-.24.2-.48.4-.58.75-.46-.02-.69.19-.56.76-.3.14-.46.41-.58.72-.21.23-.42.44-.54.74-.16.26-.33.52-.56.72-.29.56-.8.88-1.07,1.44-.29.54-.85.79-1.03,1.42-.22.59-.66.94-1,1.4-.17.62-.8.77-.96,1.37-.53.24-.58.94-.92,1.35-.43.32-.68.79-.88,1.32-.11.61-.64.79-.84,1.29-.43.27-.55.83-.79,1.26-.18.49-.47.86-.75,1.23-.32.32-.32.96-.71,1.19-.24.38-.47.76-.66,1.16.1.69-.35.82-.61,1.12-.28.28-.19.92-.57,1.08-.16.38-.26.8-.52,1.04-.26.24-.4.59-.47,1-.07.16-.14.32-.21.48-.1.13-.12.34-.2.47-.31.25-.32.77-.45,1.14-.39.11-.02.96-.36,1.06-.39.06-.26.61-.27.98.03.42-.04.71-.18.9-.11.22-.02.62-.09.82-.15.02.01.34,0,.47-.08.07.04.32.02.42-.08.04.06.29.08.42.04.14.09.27.08.34.24.39.25.49.32.6.36-.13.45-.54.63-.86.26-.24.46-.55.65-.88.29-.22.57-.47.66-.9.17-.36.45-.61.68-.92.46-.62.92-1.26,1.4-1.9.2-.28.41-.56.62-.84.08-.41.38-.6.63-.85.27-.23.54-.45.64-.86.11-.4.38-.63.65-.88.2-.31.27-.76.66-.89.2-.32.57-.48.67-.9.28-.25.33-.73.68-.91.41-.13.54-.53.7-.92.24-.31.38-.71.71-.93.21-.34.58-.53.72-.94.31-.25.56-.56.73-.95.15-.41.39-.74.74-.96.18-.39.33-.81.75-.97.29-.29.48-.68.76-.98.08-.51.62-.55.77-.99.19-.4.37-.81.78-1,.22-.38.42-.78.79-1.01.5-.1.37-.84.8-1.02.32-.3.7-.53.81-1.03.28-.33.49-.74.83-1.03.18-.45.33-.92.84-1.04.25-.37.72-.54.85-1.05.15-.49.54-.73.86-1.05.25-.39.51-.77.87-1.06.43-.22.56-.73.88-1.07.18-.47.73-.57.89-1.07.44-.21.32-1,.9-1.08.09-.57.41-.92.91-1.08.68.01.55-.78.92-1.09.31-.36.62-.73.93-1.09.41-.09.81-.18,1.22-.27s.68-.31,1.21-.26c.32-.17.71-.27,1.21-.26.29-.2.77-.2,1.21-.25.51.03.59-.37,1.2-.24.32-.15.86-.1,1.19-.24.4-.07.81-.14,1.19-.23.3-.17.68-.26,1.18-.22.4-.07.71-.21,1.17-.22.51.05.72-.2,1.16-.21.27-.18.64-.26,1.15-.2.46.01,1.06.17,1.13-.19.22-.22.85-.03,1.12-.19.38-.05.69-.17,1.11-.18.5.07.76-.09,1.09-.17.48.06.92.09,1.08-.16,0,.35-.28.42-.3.74-.28.07-.31.38-.3.73-.28.06-.02.66-.34.68-.11.22-.16.51-.25.77-.07.27-.18.49-.26.75-.09.24-.19.47-.31.68-.17.49-.45.86-.55,1.4-.01.63-.17,1.11-.53,1.38-.2.42-.56.69-.51,1.35-.11.5-.26.95-.49,1.32-.12.47-.48.7-.47,1.29-.06.52-.19.95-.44,1.25.01.57-.56.54-.42,1.21-.21.33-.11.95-.4,1.17-.03.48-.41.6-.37,1.13-.14.35-.11.86-.35,1.09-.13.33-.12.8-.32,1.04-.03.41-.25.62-.29.99-.22.2-.18.64-.26.94.04.43-.04.72-.24.89.05.41-.24.47-.21.83-.19.14-.22.43-.18.78-.34-.04.02.61-.15.72.16.43-.04.49-.11.65-.26-.02.04.5-.08.59,0,.36.15.82.02.95.16.42.21.68.25.9.18.35.35.64.43.82.21.3.32.46.57.72.17.18.43.42.66.59.29.22.59.4.88.53.28.12.67.3.85.25.23-.01.49-.02.73-.08.11.02.19-.01.29-.06.28.14.24-.07.36-.15.11-.09.45.04.42-.24.1-.14.37-.15.48-.33.27-.02.37-.24.53-.41.29-.05.33-.37.59-.49-.03-.41.3-.49.63-.57.26-.16.49-.37.68-.64.27-.19.43-.51.72-.71.12-.37.34-.67.76-.77.37-.16.52-.56.8-.83.18-.38.63-.51.83-.89.47-.11.3-.89.86-.94.21-.4.63-.61.89-.99.48-.15.63-.65.91-1.03.42-.24.71-.62.93-1.07.1-.57.63-.73.95-1.11.2-.49.83-.57.96-1.14.34-.37.68-.74.97-1.17.24-.48.82-.62.98-1.19.39-.33.58-.87.98-1.21.2-.54.75-.72.98-1.23.58-.16.78-.7.98-1.24.18-.56.64-.84.97-1.24.48-.26.75-.73.96-1.25.14-.59.67-.8.95-1.25.46-.27.64-.82.94-1.24.29-.43.68-.76.92-1.24.24-.47.74-.68.89-1.22.23-.47.54-.85.87-1.21.06-.62.77-.59.84-1.19.2-.46.46-.87.81-1.16.15-.49.67-.61.77-1.13.4-.23.47-.76.73-1.1.35-.25.53-.66.69-1.06.22-.35.44-.69.65-1.02.21-.33.41-.66.6-.98.27-.24.44-.56.55-.93.06-.41.49-.44.49-.88.21-.23.28-.58.44-.82.44,0,.76-.16,1.01-.39.22-.25.94-.01,1.24-.16.62.17.91.04,1.29.04.29-.09,1.01.32,1.15.21.45.21.74.33.82.35.36.3.39.36.32.45-.1.04.15.52-.14.55-.16.15,0,.7-.37.79-.33.13-.25.74-.58,1-.12.1-.15.3-.26.42-.08.16-.13.35-.29.45-.14.12-.05.46-.28.5-.11.16-.23.31-.35.47-.54.02-.4.75-.7,1.05-.12.48-.33.9-.76,1.12-.26.39-.68.63-.8,1.18-.45.22-.48.88-.83,1.23-.36.34-.58.82-.84,1.27-.16.55-.48.95-.84,1.3-.18.54-.43,1-.83,1.32-.2.52-.74.68-.8,1.33-.2.5-.61.79-.76,1.32-.25.43-.55.81-.7,1.31-.04.62-.55.75-.64,1.28-.37.25-.15,1.07-.55,1.25-.25.33-.13,1-.46,1.2-.24.29,0,1.02-.35,1.14.06.53-.09.81-.22,1.07.16.56-.03.72-.09.99-.32.07.2.91.14,1.12-.16.11.23.71.42,1.05.25.4.3.54.65.92.11.14.56.56.82.72.2.1.59.34.93.47.28.06.69.2.99.16.11-.08.5.02.68-.18.26-.12.56-.29.9-.51.17-.11.27-.3.52-.37.28-.03.24-.41.57-.44.17-.18.24-.49.61-.51.29-.1.38-.42.65-.57.5.07.23-.64.69-.64.46,0,.36-.57.73-.69.4-.09.48-.52.76-.75.25-.27.38-.67.8-.8.31-.23.61-.49.83-.85.27-.3.47-.69.85-.9.34-.26.67-.53.88-.94.23-.38.48-.76.9-.99.33-.31.61-.68.92-1.02.35-.31.69-.63.93-1.06.32-.35.59-.76.95-1.09.2-.14.37-.32.52-.51s.35-.35.44-.61c.19-.16.29-.41.49-.56.2-.15.21-.5.48-.58.13-.23.27-.44.49-.58.24-.11.27-.45.49-.59.23-.13.31-.4.46-.62.28-.08.33-.4.52-.57.13-.23.26-.47.42-.66.08-.28.25-.47.56-.53.11-.25.35-.38.48-.62.15-.22.29-.44.51-.59.07-.29.26-.47.42-.68.11-.26.31-.42.56-.54.17-.2.27-.46.53-.57.3-.07.35-.38.44-.66.2-.17.27-.46.46-.64.15-.21.32-.41.51-.59.18-.18.34-.39.49-.61s.3-.43.47-.62c.38-.35.68-.77.94-1.23.28-.45.63-.81.93-1.22.31-.41.61-.81.91-1.21-.25.48-.49.97-.73,1.45-.19.54-.47.98-.72,1.45-.22.5-.48.96-.71,1.45-.16.2-.28.44-.38.68-.14.22-.23.48-.31.76-.03.32-.12.59-.29.77-.14.22-.27.43-.39.66-.17.18-.29.4-.36.68-.01.34-.16.54-.3.74-.07.28-.16.53-.29.74,0,.33-.07.61-.35.67-.22.12-.33.35-.38.63-.21.12-.15.52-.24.76.01.35-.37.29-.26.73-.11.22-.25.4-.33.65-.11.21-.21.44-.28.68-.13.2-.19.45-.28.67-.1.22-.22.41-.25.69-.03.28-.23.39-.29.64-.32.38-.53.85-.58,1.47-.18.5-.36.97-.54,1.44-.11.54-.39.89-.5,1.4-.09.53-.45.78-.46,1.36-.17.42-.26.91-.42,1.32-.33.24-.24.87-.37,1.27-.14.39-.42.62-.32,1.22-.23.26-.26.72-.27,1.17-.17.29-.34.57-.22,1.11,0,.42-.11.72-.17,1.05-.09.29-.04.71-.11.99-.05.3.02.69-.05.92,0,.15-.04.26,0,.44-.05.09.02.3,0,.41-.13,0-.01.24.02.39.18.3-.03.2.05.39-.11,0-.02.19.05.35.08.18.19.37.09.35-.12-.04.07.23-.01.21.07.14.07.2.22.41.09.16.17.3.21.4.13.18.13.23.18.31.06.09.13.19.25.32.07.09.16.17.32.32.04.03.02-.02.32.23.02-.02.12.02.34.15.49.27.55,0,.85-.05.26-.1.35-.43.64-.57.18-.26.31-.57.41-.91.13-.45.27-.9.4-1.34s.29-.86.4-1.33c.17-.41.11-1.05.41-1.32.13-.44.14-1.01.41-1.3.31-.26.22-.92.42-1.29.05-.52.63-.51.42-1.28.05-.52.23-.9.43-1.27-.21-.77.33-.8.43-1.26.06-.51.42-.7.43-1.25-.09-.65.28-.84.44-1.24.1-.45.17-.95.44-1.23.18-.37.15-.96.45-1.22.04-.51.56-.55.45-1.21.11-.44.47-.63.45-1.2.02-.53.12-.98.46-1.19.16-.38.3-.79.46-1.18.18-.36.23-.85.46-1.17.22-.32.38-.7.47-1.16.09-.45.54-.54.47-1.15.14-.4.36-.71.47-1.14.21-.33.14-.93.48-1.13.23-.31.32-.75.48-1.12.09-.45.3-.77.48-1.11.14-.39.38-.68.49-1.1,0-.52.13-.92.49-1.09.05-.22.13-.4.22-.57s.2-.33.28-.51c.05-.21.27-.26.28-.5.08-.18.15-.37.21-.57-.03-.29.15-.37.29-.49.06-.2.14-.38.21-.57.23-.03.1-.42.25-.53,0-.25.24-.28.25-.52-.06-.32.13-.39.23-.55.13-.12.18-.34.27-.5-.06-.32.31-.21.28-.5,0-.26.24-.27.23-.54.04-.22.22-.3.28-.49.19-.06.27-.24.23-.54.1-.15.04-.48.25-.52.2-.06.08-.44.26-.5.14-.11.15-.36.29-.48.05-.2.14-.37.23-.54.24-.27.39-.63.51-1.01.15-.35.32-.69.52-1,.08-.43.26-.75.52-.99.21-.29.3-.7.52-.99.31-.19.24-.76.52-.98.27-.23.32-.68.52-.97.25-.25.5-.5.52-.97-.02-.52.24-.75.53-.96.18-.07.34-.15.26-.48.06-.19.18-.32.26-.48.15-.34.27-.72.53-.95.35-.14.4-.57.53-.94.22-.07.51-.08.81-.07.39.1.62.04.88.01.16-.13.65.07.87,0,.3,0,.54-.03.81-.05.35.06.46-.11.83-.02.24-.04.57,0,.83-.02.36-.22,1.18.02,1.7-.02.49-.08,1.08-.06,1.69-.01.52-.05,1.09-.03,1.67,0,.6.04,1.18.08,1.65,0,.55,0,1.23.16,1.63.02.58.05,1.18.13,1.6.03.51-.01,1.01-.02,1.58.04.56.05.95-.06,1.55.05.49,0,1.02.03,1.53.05.42-.06,1.16.2,1.5.06.34-.13.83-.11,1.46.07.59.13.82-.09,1.43.07.66.21.99.1,1.4.08.51.08.89.03,1.36.09.43.02.78-.05,1.32.09.39-.01.83.03,1.29.09.51.12.74-.03,1.24.1.5.13.8.06,1.2.1.38.02.79.08,1.16.1.37.03.82.14,1.11.11.19-.13.71.06,1.07.11.5.19.6,0,1.02.11.35.06.72.14.97.11.27,0,.6.05.91.11.17-.09.55.04.86.11.35.11.53.06.81.11.3.08.47.04.75.11.35.14.35-.05.69.11.18,0,.44.08.63.11.34.18.39.07.57.1.34.19.38.1.5.1.37.24.23-.01.44.1ZM39.96,36.92c.51-.57,1.02-1.15,1.54-1.72.13-.14.35-.2.41-.41.1-.17.39-.16.37-.45-.02-.29.25-.29.42-.41.4.12.29-.26.37-.46.09-.19.29-.27.4-.43,0-.28.07-.48.4-.43.13-.4.47-.6.77-.84.26-.28.47-.61.78-.84.23-.31.64-.44.78-.84.23-.31.6-.49.79-.84.25-.3.6-.48.79-.84.36-.18.55-.54.8-.84.18-.37.51-.59.8-.84.42-.13.47-.63.81-.84.41-.14.83-.27.81-.84.34-.21.56-.55.82-.84.31-.24.62-.49.83-.84.42-.14.41-.7.83-.84.49-.07.69-.43.84-.84.17-.39.59-.53.84-.84.15-.41.55-.57.85-.84.12-.45.59-.54.85-.84.33-.23.37-.76.86-.84.27-.29.57-.56.86-.83.31-.25.52-.61.87-.83.27-.3.52-.61.87-.83.23-.34.63-.51.88-.83.39-.18.51-.64.88-.83.29-.29.54-.6.89-.83.31-.27.5-.65.89-.82.29-.28.73-.42.9-.82.2-.37.62-.53.9-.82.41-.16.67-.48.91-.82.27-.31.51-.64.92-.82.42-.15.53-.63.92-.81-.28.25-.25.8-.59.99-.08.45-.34.72-.58,1,.03.56-.38.69-.58,1.02-.4.14-.62.46-.58,1.03-.11.43-.37.71-.58,1.04-.15.4-.61.48-.58,1.06-.24.31-.25.84-.58,1.07-.05.23-.12.43-.22.61-.08.19-.17.38-.36.47-.02.25-.13.43-.27.56-.21.07-.31.25-.3.53-.2.08-.19.37-.28.55-.2.08-.16.39-.29.55-.09.19-.21.34-.28.55-.17.11-.29.27-.28.55-.07.44-.33.7-.52,1.02-.24.27-.48.55-.51,1.03-.23.29-.25.77-.51,1.03-.29.23-.45.58-.51,1.04-.13.39-.35.68-.5,1.04-.11.4-.33.69-.5,1.04-.26.26-.25.78-.49,1.04-.07.44-.39.63-.49,1.04-.07.44-.24.77-.48,1.04-.31.2-.38.63-.48,1.04-.07.43-.35.66-.47,1.04-.28.23-.34.67-.47,1.04-.08.42-.02.98-.46,1.04-.13.14-.15.39-.22.59.16.43.17.71-.28.53-.07.2-.01.52-.3.5-.11.16-.19.34-.18.61-.47-.13-.77-.09-1,.02-.16.19-.45.26-1.03.04-.47-.11-.72.01-1.06.05-.31.07-.79-.03-1.08.06-.33.05-.68.1-1.11.07-.53-.13-.7.1-1.13.08-.44-.03-1.01-.19-1.15.09-.35.06-.71.12-1.16.1-.28-.06-.58-.16-.74-.1-.26-.05-.44-.01-.44.21-.21.01-.52-.08-.58.07-.21,0-.2.24-.61.05-.39-.17-.45,0-.66,0s-.4.04-.55.12c-.4.05-.81.09-1.21.14-.41.05-.81.1-1.22.15Z"/>
      <path class="cls-1" d="M221.03,39.82c-.39-.24-.79.22-1.18.28-.39-.03-.79.28-1.18.27-.39.04-.78.26-1.17.26-.39.24-.78.03-1.17.24-.39.22-.78,0-1.17.23-.39.33-.77.15-1.16.22-.39-.19-.77.22-1.15.21-.38-.04-.76-.05-1.14.2-.19-.09-.38-.03-.57.05s-.38.17-.57.14c-.19-.02-.38,0-.56.05-.19-.05-.37-.05-.56.13-.19-.02-.37-.02-.56.03-.19.07-.37.44-.56.13-.18-.14-.37.34-.55.08-.18-.02-.37-.03-.55.08.02-.71.04-.36.06-.62.02.18.04-.45.05-.61.02.25.03-.63.05-.62.01-.09.03-.7.04-.56.01-.27.03-.03.04-.54.01-.53.02-.39.04-.6.01-.62.02-.67.03-.63.01-.15.02-.59.04-.48.01.08.02-.11.04-.51.01-.07.03-.59.04-.58.01-.42.03-.41.04-.58.02-.3.03-.33.05-.51.02-.02.04-.25.06-.6.02-.17.04-.67.07-.49.02-.18.05-.14.08-.41.03-.09.06-.57.09-.71.03-.22.06-.45.1-.64s.07-.36.11-.51c.08-.16.17-.55.27-1.19.1-.32.22-.97.34-1.23.13-.45.26-.98.4-1.25.14-.04.29-.76.44-1.24.15-.5.3-.66.45-1.2.15-.43.3-.84.45-1.12.15-.21.29-.47.42-1.01.13-.3.26-.57.37-.87.11-.36.21-.25.3-.7.08-.29.15-.37.2-.49.12-.17.17-.3.17-.43s-.05-.28-.15-.49c-.09-.22-.22-.13-.38-.32-.16,0-.34-.04-.53-.08-.26.04-.54.11-.81-.04-.27.06-.53.33-.75.09-.22.07-.4.22-.5.18-.05.09-.1.19-.16.28s-.12.19-.18.29c-.12.23-.26.19-.4.62-.14.46-.3.27-.46.66-.16.39-.34.49-.52.7-.18.51-.38,0-.58.73-.2-.01-.41.7-.63.77-.22.19-.44.76-.68.8-.23.21-.47.53-.72.83-.25.11-.5.72-.76.85-.26.37-.53.54-.8.87-.27.19-.55.68-.84.89-.14.21-.29.36-.43.5s-.29.26-.44.41c-.15.05-.3.34-.45.47-.15.19-.3.42-.46.46-.15.23-.31.35-.46.44-.16.15-.31.22-.47.5-.16.14-.32.36-.48.41-.16.19-.32.01-.48.54-.16.16-.32.63-.49.51-.16.14-.33.27-.49.44-.28.37-.56.87-.84.81-.28.09-.57.36-.85.81-.29.51-.57.29-.86.81-.29.41-.58.36-.87.81-.29.05-.58.59-.88.8-.29.53-.59.61-.88.8-.29.2-.59.73-.88.79-.29.16-.59.63-.88.78-.29.41-.59.54-.88.77-.29-.02-.59.39-.88.76-.29.09-.58.28-.87.74-.29.29-.58.42-.87.73-.29.36-.57.29-.86.71-.4-.16-.75.09-1.04-.04-.29.06-.51-.08-.67-.06-.06.19-.15.46-.22.63-.08.38-.15.7-.15,1.15-.37.46-.73.71-1.09.85-.36.7-.71.64-1.05.8-.35.39-.68.45-1.02.75-.17.18-.33.44-.49.6s-.32.25-.48.09c-.38.05-.23.42-.47.37-.13.07-.27.1-.46.27-.49-.31-.1.28-.45.17-.06.18-.45.06-.43.41-.14.11-.28.1-.42.12s-.27.1-.41.39c-.27.39-.52.37-.77.44-.25.1-.48.28-.71.37-.22.09-.44.13-.64.29.1-.28.21-.76.33-1.04.12-.24.24-.9.38-1.09.07-.19.18-.39.21-.65.13-.15.06-.48.22-.48-.07-.23,0-.42.22-.48.03-.26.11-.5.23-.68.18-.09.13-.42.24-.59.07-.21.2-.36.25-.59.14-.42.14-.99.51-1.19.17-.4.39-.77.53-1.2.31-.27.42-.74.55-1.19.22-.36.33-.83.55-1.18.13-.45.23-.91.56-1.15.13-.44.27-.85.55-1.12.2-.35.39-.7.54-1.08.21-.31.35-.7.53-1.02.18-.33.4-.59.51-.96.2-.28.36-.57.48-.89.12-.31.31-.55.44-.81.23-.17.3-.47.41-.73.13-.23.25-.44.36-.63.04-.3-.07-.66-.25-1-.18-.33-.5-.69-.73-.83-.48-.38-.51-.17-.85-.1-.18.12-.18.46-.49.52-.35.02-.49.29-.56.65-.35.09-.39.51-.62.78-.21.28-.54.47-.68.88-.37.17-.51.6-.72.98-.29.29-.49.7-.75,1.06-.06.55-.81.44-.76,1.12-.34.3-.46.83-.77,1.18,0,.66-.54.77-.77,1.22-.28.38-.51.82-.75,1.25-.1.56-.48.85-.72,1.26-.27.39-.47.84-.68,1.26-.15.49-.45.82-.63,1.25-.3.32-.33.88-.57,1.22-.33.25-.28.87-.5,1.18,0,.53-.34.72-.42,1.13-.37.12-.03.93-.32,1.06.15.58-.28.56-.22.98-.07.12-.12.24-.14.38-.05.11-.05.27.04.51-.03.07-.02.18,0,.29-.06.03.08.26.07.34-.04.13-.05.28,0,.48-.07.08.06.35.15.55-.03.03-.1.02-.08.09.17.22.08.19.24.4.31.41.27.45.23.49-.07,0,.42.56.27.46.04.09.25.34.27.39.12.13.32.35.41.44.13.14.19.21-.04-.02-.11-.1.51.5.32.3.26.25.17.13.44.35.2.16.51.42.49.33.15.09.04-.09.33.11.24.13.38.13.57.17.19.02.38.08.56.05.13-.1.27-.02.41-.03.14-.08.29.05.44-.08.15,0,.31-.08.47-.13.16.12.33-.08.5-.18.17-.09.35-.25.53-.23.18-.13.37-.32.55-.27.19-.13.38-.22.58-.31.2.1.4-.43.6-.35.2-.17.41-.13.62-.39.21-.1.43-.28.65-.43.22-.14.44-.24.66-.46.22.02.45-.34.68-.49.23,0,.46-.11.7-.52.24-.23.47-.68.71-.55.24-.03.48-.47.73-.58.12-.01.25-.34.37-.3.12-.19.25-.06.37-.31.12.01.25-.13.37-.31.13.05.25-.32.38-.28.13-.13.25-.27.38-.4.13-.13.25-.24.38-.29.17.27.36.15.56.21.2.29.41.05.64.17.16-.22.33.35.51.1.18-.25.36-.06.55.08.18.34.38.92.6.9.22.42.46,1.1.71.96.25.41.52,1.13.81.99.28.27.58.51.88.99.31.36.62.66.95.97.32.45.66.63.99.91.34.3.68.55,1.02.83.34.34.69.6,1.03.73.34.05.69.47,1.03.59.34.13.68.52,1.01.43.33.06.65-.14.97.23.31-.11.62-.03.91.01.3-.14.6-.04.88-.18.28-.37.56-.12.82-.31.26-.28.51-.29.76-.45.24-.37.48-.28.7-.58.22.08.44-.4.64-.72.21-.26.4-.41.59-.85.19-.38.37-.77.54-.98.17-.34.34-.28.5-1.11.16-.55.31-.38.45-1.24.14-.78.28-.86.41-1.37.13-.45.26-.92.38-1.49.12-.57.23-.87.34-1.62.22-.06.45-.12.67-.18s.45-.12.67-.19c.44-.24.89-.44,1.32-.38.44-.26.87-.33,1.31-.39.43.1.86-.26,1.28-.4.42-.15.84-.36,1.25-.41.41-.08.82-.16,1.22-.42.4-.29.79-.34,1.18-.43.38-.16.76-.31,1.13-.43.37-.31.73-.37,1.08-.44.35-.08.69-.44,1.02-.44.33-.36.65-.43.96-.43.31-.19.6-.43.89-.43.28-.09.56-.33.81-.43.26-.05.5-.31.73-.42.23.05.45-.33.65-.41.11-.22.21-.12.31-.22.1-.07.19-.14.28-.21-.19-.51-.39-.36-.61-.59-.22-.21-.46-.06-.73-.21-.27,0-.57.29-.91.1ZM205.86,28.7c-.12.59-.28,1.37-.46,2.29-.06.31-.13.63-.2.96-.03.19-.07.46-.1.68s-.07.36-.11.37c-.04.25-.08.52-.11.66-.04.16-.08.33-.12.46-.04.25-.08.12-.12.55-.04.09-.08.67-.13.62-.04.18-.09.59-.13.82-.04.07-.09.66-.13.41-.05.38-.09.55-.14.71-.05.35-.09.56-.14.56-.05.52-.1.29-.14.58-.05.11-.1.48-.15.71-.05.58-.1.48-.15.75-.05.21-.1.31-.15.56-.05.16-.1.21-.16.71-.05-.1-.11.48-.16.6-.05-.12-.11.31-.16.65-.05.03-.11.53-.17.65-.21-.65-.41.13-.62-.15-.2.16-.41-.11-.61.28-.2.27-.4.18-.6.08-.2,0-.4-.04-.59.04-.39.4-.78.29-1.17.11-.38-.2-.76.17-1.14.09-.37.15-.74-.1-1.1.08-.36-.23-.72.07-1.07.07-.35-.33-.7-.11-1.03.06-.34-.08-.67-.04-1,.06-.33.02-.65.03-.96.05-.31.01-.62.03-.92.04.31-.3.62-.61.94-.92s.62-1,.93-.93c.31-.55.62-.67.93-.94.31-.35.61-.78.92-.94.3-.49.61-.66.91-.94.3-.32.6-.58.9-.94.3-.27.59-.48.88-.94.29-.15.58-.58.87-.93.29-.2.57-.74.85-.92.28-.42.55-.79.83-.91.27-.17.54-.75.8-.89.26-.53.52-.62.78-.88.25-.95.5-.47.75-.86.25-.34.49-.56.72-.83.7-.82,1.36-1.6,1.96-2.33ZM197.7,54.27c-.21.18-.45-.01-.71-.14-.26.05-.55-.32-.85-.42-.3-.11-.62-.91-.94-.63-.32-.93-.66-.87-.98-.78-.33-.42-.66-.16-.98-.87-.32.16-.63-.23-.92-.9-.29-.02-.56-.59-.81-.86.31,0,.62-.02.94-.03.32-.38.65.04.98-.06.33-.04.67-.01,1.02-.09.35-.6.7-.35,1.05-.11.36-.48.72-.03,1.08-.14.37,0,.74.02,1.11-.16.37-.24.75.15,1.13-.19.38.23.77-.54,1.15-.21.39.05.78-.53,1.17-.23-.16.2-.32.84-.48,1.38-.16.34-.33.73-.49,1.24-.16-.19-.33.5-.49,1.08-.17.05-.33.78-.5.88-.17.33-.33.59-.5.67-.16.09-.33.6-.49.42-.16,0-.33.05-.49.15Z"/>
      <g>
        <path class="cls-1" d="M377.65,14.98s0,0,0,0c0-.06,0-.05,0,0Z"/>
        <path class="cls-1" d="M377.44,14c-.13-.47-.3-1.09-.52-.88-.21-.15-.47-.61-.74-.71-.28-.34-.58-.48-.89-.48-.31.03-.64-.27-.97-.18-.33,0-.47.08-.48.18s.08.24.22.34c-.19.32-.37.79-.56.99-.19.45-.38.75-.57,1-.19.59-.39.42-.58,1-.19.47-.39,1.01-.59,1-.2.64-.4.85-.6,1-.2.55-.4.62-.6,1-.2.06-.41.19-.61,1-.2.51-.41.81-.62,1-.21.45-.42.91-.62,1-.21.25-.42.91-.63.99-.21.5-.42.85-.64.99-.21.09-.43.48-.64.99-.21.35-.43.66-.65.98-.22.55-.43.7-.65.98-.22.38-.44.77-.65.97-.11.09-.22-.14-.33.48-.11.26-.22.37-.33.48-.11.62-.22.35-.33.49-.11.13-.22-.02-.33.46-.11.41-.22.3-.33.42-.11.06-.22.41-.33.53-.14.08-.28.11-.42-.31-.14-.15-.28-.2-.43-.14-.14,0-.29.06-.44-.23-.15.25-.3-.16-.45-.09-.15.03-.3.06-.46.04-.15-.02-.31-.08-.46-.23-.31-.61-.63.17-.95-.06-.32-.23-.65-.15-.98.05-.33-.42-.66-.2-1,.17-.34.75-.68.45-1.02.27-.34.39-.69.35-1.03.37-.35.62-.69.36-1.04.47-.35.03-.7-.03-1.05.55-.35-.12-.7.66-1.05.64-.35,0-.7.05-1.05.71-.35.6-.7.37-1.04.78-.35.07-.69.44-1.03.85-.34.52-.68.64-1.02.91-.34.62-.67.69-1,.96-.33.47-.65.69-.97,1.01-.32.25-.63.77-.94,1.05-.31.27-.61.84-.91,1.08-.3.31-.59.89-.88,1.11-.29.28-.56.67-.84,1.14,0,.01-.05.16-.05-.06-.12.37-.25.28-.39.59-.13.21-.27.18-.41.59-.14.2-.29.4-.44.6-.22.3-.46.6-.7.89-.24.22-.49.54-.74.89-.25.43-.51.7-.78.89-.27.21-.54.76-.81.89-.14.17-.28.34-.42.49-.14.08-.28.35-.42.39-.14.12-.29.1-.43.33-.14.22-.29.37-.43.54-.15.44-.29.64-.44.55-.15.06-.29.1-.44.31-.15-.08-.3.04-.45.22s-.3.44-.45.62c-.3.74-.6.42-.9.82-.3.57-.6.48-.9.8-.3.49-.6.38-.9.78-.3.17-.59.93-.89.75-.29.64-.59.46-.87.73-.29.34-.57.52-.85.7-.15.41-.3-.09-.44.36-.15.24-.29.36-.44.35-.14-.19-.29.38-.43.46-.14.18-.28.31-.42.2-.27.35-.54.46-.8.62-.26.06-.51.39-.75.57-.24-.12-.48.09-.7.52-.22.25-.43.27-.64.47.03-.37.07-.51.13-.8.05-.28.12-.6.2-.86.08-.59.17-.44.27-.91.1-.21.21-.56.33-.96.12-.69.25-.56.39-1,.14.22.28-.48.44-1.04.15-.28.32-.8.49-1.08.17-.47.35-.55.53-1.11.18-.31.38-.74.57-1.13.2-.23.4-.79.61-1.15.21.01.42-.9.64-1.17.22-.36.44-.96.67-1.18.23-.62.46-.26.69-1.19.23-.49.47-1.2.71-1.19.24-.27.48-.82.72-1.18.24-.63.49-.42.73-1.17.24-.57.49-.73.73-1.16.25-.49.49-1.06.74-1.14.24-.45.49-.76.73-1.12.24-.55.48-.37.72-1.09.24-.45.48-.59.71-1.06.23-.1.46-.69.69-1.02.23-.33.45-.66.67-.98.22-.32.43-.63.64-.93.21-.33.41-.58.61-.88.2-.41.39-.59.58-.82.34-.82.58-1,.73-1.4.15-.62.21-.91.19-1.22-.02-.72-.11-.93-.26-1.04-.15-.25-.37-.72-.63-.88-.26-.39-.58-.59-.93-.73-.35-.22-.73-.39-1.13-.58-.4-.27-.83-.47-1.26-.45-.43-.28-.87-.32-1.31-.33-.43-.28-.86-.21-1.27-.21-.41-.22-.8-.15-1.15-.11-.35-.21-.68-.09-.95-.01-.27.27-.5.12-.67.07-.15.07-.27.08-.38.15-.11.24-.19-.03-.27.25-.07.1-.13.47-.18.33-.05.08-.08.58-.11.39-.03.11-.05.22-.06.39-.02.25-.03.52-.03.48-.06.2-.12.17-.18.27-.06.09-.13.2-.19.33-.13.43-.27.33-.42.65-.15.42-.3.21-.46.69-.16.44-.33.44-.5.73-.17.75-.35.62-.54.77-.19.2-.38.78-.58.81-.2.41-.41.35-.62.84-.21.51-.43.52-.66.87-.22.59-.46.71-.69.9-.24.26-.48.52-.73.93-.25-.05-.5.82-.77.95-.26.25-.53.8-.8.97-.27.4-.55.76-.84.99-.28.11-.58.5-.87,1-.3.11-.6.65-.91,1.02-.31.03-.62.67-.94,1.03-.32.54-.64.97-.97,1.03-.33.57-.66.67-1,1.04-.34.19-.69.65-1.04,1.04-.35.54-.71.94-1.07,1.04-.36-.18-.73.76-1.1,1.04-.37.2-.75.81-1.13,1.03-.18.22-.37.14-.55.49-.18.38-.37.23-.56.49-.19.31-.37.35-.56.52-.19.05-.38.63-.57.45-.19.19-.38.42-.58.45-.19.27-.39.34-.58.51-.2.08-.39,0-.59.38-.2.23-.4.29-.6.56-.2.18-.4.32-.6.45-.2.09-.4.4-.61.48.05-.12.1-.19.16-.42.05-.1.11-.57.16-.55.05-.29.11-.25.17-.49.06-.28.11-.67.17-.53.06-.19.12-.84.18-.61.06-.02.12.07.18-.45.06-.2.12-.13.19-.51.06-.15.13-.26.19-.58.07-.26.13-.33.2-.5.07-.27.13-.46.2-.62.07-.16.14-.43.21-.67.07-.22.14-.41.21-.47.14-.32.29-.57.44-1.16.07.27.15-.57.23-.65.08.16.15-.49.23-.52.08-.19.15,0,.23-.47.08-.21.16-.62.24-.71.08-.37.16-.82.24-.58.08-.34.16-.33.24-.6.08,0,.16-.6.25-.59.08-.08.17-.65.25-.59.14-.56.29-.68.44-1,.15-.24.3-.5.45-.99.15-.7.3-.63.45-.97.15-.09.31-.49.46-.96.16-.4.31-.58.47-.93.08-.08.16-.24.24-.41.08-.17.16-.36.24-.5.08-.13.16-.15.24-.2.08-.15.16-.33.24-.68.05-.03.05-.13.02-.32-.04-.1-.11-.29-.21-.31-.1-.31-.23-.14-.38-.27-.15-.24-.31-.27-.49-.22-.17-.29-.36.14-.53-.15-.18-.23-.36.01-.52-.07-.16-.1-.32.27-.45-.08-.13.11-.24.03-.31.23-.07-.28-.14.23-.22.32-.08.12-.16.51-.24.35-.14-.04-.28.09-.42-.07-.14,0-.29-.31-.43-.4-.15-.11-.29-.24-.44-.32-.15-.08-.3-.11-.45-.02-.31-.56-.62.13-.94-.2-.32.12-.64-.26-.97-.08-.33-.06-.66.19-1,.04-.34-.04-.68.83-1.03.15-.35-.02-.7-.26-1.05.25-.35.54-.71.38-1.06.35-.36.43-.72-.08-1.08.44-.36.08-.72.5-1.09.52-.36,0-.73.53-1.09.6-.36.31-.73.58-1.09.67-.36.02-.72.95-1.09.74-.36.31-.72.67-1.08.8-.36.23-.71.52-1.06.85-.35.08-.7.27-1.05.9-.35.16-.69.65-1.02.94-.34.48-.67.67-1,.97-.33.04-.65.82-.97,1-.32.3-.63.78-.93,1.02-.3.54-.6.91-.89,1.03-.29.54-.57.98-.85,1.04-.28.25-.54.69-.8,1.04-.26.24-.51.77-.75,1.04-.24.34-.47.72-.69,1.03-.22-.04-.43.52-.63,1.01-.2.48-.39,1.14-.57.99-.18.63-.34.84-.5.95-.15.32-.3.37-.44.94-.14.4-.28,1-.41.97-.13.1-.25.72-.36,1-.11.54-.2,1.12-.28,1.02-.08.64-.14,1.04-.18,1.04-.04.54-.06.62-.06,1.05,0,.28.06.77.16.89.1.24.24.68.41.84.17.15.38.51.6.7.22.2.46.37.71.49.25.12.5.18.75.18.44,0,1.04-.18,1.79-.54.19-.09.38-.08.59-.31.2-.07.42-.19.64-.38.22-.41.45-.33.69-.45.24-.32.49-.61.74-.52.26-.22.52-.75.79-.58.27-.35.55-.85.84-.65.29-.11.59-.39.89-.72.3-.33.62-.66.94-.79.32-.41.65-.47.98-.86.34-.17.68-.55,1.03-.93.35-.52.71-.72,1.07-1,.36-.26.74-.85,1.12-1.07.19-.06.38-.3.57-.54.19-.24.39-.5.58-.6.2-.09.39-.49.59-.6.2-.24.4-.67.6-.61.2-.11.41-.41.62-.7.21-.33.41-.32.62-.58.21-.14.42-.38.63-.65.21-.36.43-.58.64-.7.14-.17.29-.43.43-.41.15-.22.29-.32.44-.5.15-.24.29-.19.44-.51.15-.24.3-.32.45-.53.15-.08.3-.28.45-.49.15-.04.3-.26.46-.46.15-.11.31-.24.46-.48.15-.15.31-.3.46-.47.16-.17.31-.36.47-.61-.11.29-.22.5-.33.67-.11.18-.22.33-.34.52-.11.16-.23.37-.34.63-.11.27-.23.43-.34.62-.11.26-.23.7-.34.73-.11.19-.23.58-.34.56-.11.18-.22.26-.33.76-.11.05-.22.74-.33.56-.11.42-.21.09-.32.66-.11.03-.21.6-.31.67-.1.24-.2.34-.3.7-.05-.02-.1.11-.14.26-.05.15-.09.42-.14.37-.05-.12-.09.18-.14.22-.05.19-.09.28-.13.54-.09.1-.17.69-.26.55-.04,0-.08.12-.12.22-.04.22-.08.5-.12.39-.04.11-.08.53-.11.4-.04-.06-.07.2-.11.27-.03.24-.07.23-.1.34-.03.23-.06-.09-.1.28-.03-.11-.06.19-.09.22-.03-.2-.06.3-.08.39-.06.14-.12.42-.17.71-.05-.19-.09.26-.13.6-.04.35-.07.33-.1.71-.03.18-.05.31-.06.49-.01-.06-.02.35-.02.47,0,.2,0,.31.03.61.02.13.04.48.07.51.03.12.07.57.12.43.05.13.1.28.17.56.07.06.14.1.22.21.08-.03.18.46.28.47.1.03.21.27.34.11.12.2.25.18.4.17.14.06.29.12.46.2.33.09.7.13,1.11.14.11,0,.24-.02.38-.05.14-.04.29-.09.45-.16.16.01.33-.33.51-.27.18-.15.37-.06.58-.36.2-.18.41-.5.63-.46.22-.3.45-.03.69-.54.24-.83.48-.39.74-.62.25-.23.51-.31.78-.7.27-.26.54-.52.82-.77.28-.44.57-.8.86-.84.29-.44.59-.64.89-.89.3-.29.61-.68.92-.95.31-.22.62-.74.94-1,.32-.25.64-.74.96-1.04.32-.3.65-.67.97-1.08.33-.64.65-.66.98-1.11.33-.49.66-.88.99-1.13.33-.47.66-.53.99-1.15.33-.5.66-1.09.98-1.17.33-.49.65-.94.98-1.18.32-.26.64-.82.96-1.18.32-.45.63-.7.95-1.18.31-.51.62-.73.92-1.17.3-.51.6-1.13.9-1.16.29-.62.59-.69.87-1.14.28-.14.56-.88.83-1.12.27-.39.54-.95.8-1.09.26-.09.51-.65.75-1.05.24-.15.48-.56.71-1.01.23-.31.45-.79.65-.96.21-.28.41-.79.6-.91.09-.12.19-.34.28-.36.09.11.18-.21.26-.49.17.51.36.27.56.04.2-.04.41-.06.63,0,.22-.22.45.26.68,0,.23.02.46.14.69.11.23.44.46-.34.68.1.22.08.44.12.65.14.41.37.78.56,1.07.41.29.38.5.56.59.62.09.43.07.61-.1.87-.03.04-.09-.15-.16.34-.07.33-.17.19-.28.45-.06.08-.12.22-.18.34-.06-.12-.13.29-.21.21-.07.29-.15.61-.23.33-.08.13-.16-.08-.25.32-.09.23-.18.03-.27.36-.09-.04-.19-.15-.29.38-.19.14-.38.13-.59.74-.21.62-.42.5-.64.81-.22.94-.45.33-.69.87-.12.33-.24.32-.36.43-.12.3-.25,0-.37.49-.13.41-.25.27-.38.6-.13.21-.26.16-.39.37-.13.37-.26.29-.39.44-.13.06-.27.44-.4.56-.13-.02-.27.1-.4.49-.14-.03-.27.36-.41.55-.14.24-.27.34-.41.66-.14.1-.27.25-.41.41-.14-.04-.28.23-.41.55-.14.26-.28.51-.41.55-.28.66-.55,1.15-.82,1.12-.27.39-.54.95-.81,1.13-.27.61-.53.48-.79,1.14-.26.82-.52.89-.77,1.15-.25.2-.49.76-.73,1.15-.24.42-.47.78-.69,1.14-.11.22-.22.44-.33.64-.11.2-.21.37-.31.49-.1.08-.2.11-.3.35-.1.39-.19.5-.29.76-.09.11-.18.4-.27.29-.09.43-.17.22-.25.8-.08.23-.16.47-.23.49-.08.17-.15.46-.22.57-.07.34-.13.39-.2.48-.06.22-.12.63-.18.54-.06.34-.11.18-.15.5-.05.11-.09.4-.13.49-.04.47-.08.53-.11.6-.03.08-.06.12-.08.34-.05.3-.08.46-.09.89,0,.86.02.77.07.83.05.1.12.63.22.97.1,1.11.22.75.38,1.01.15.37.33.82.53.96.2.29.43.55.69.81.25.01.54.45.84.56.31.24.64.21,1,.21.39,0,.92-.19,1.56-.54.21-.12.44-.25.68-.41.24-.23.48-.13.74-.51.26-.43.52-.4.8-.61.28-.52.56-.43.85-.7.29-.21.59-.59.9-.78.31-.33.62-.64.94-.86.32-.6.64-.83.97-.94.33-.52.66-.73,1-1,.34-.24.67-.82,1.02-1.06.34-.39.68-.79,1.03-1.12.17-.05.34-.14.52-.5.17-.32.34-.51.52-.66.09-.19.17-.27.26-.36.09-.21.17-.27.26-.37.09-.02.17-.17.26-.18.09-.2.17-.16.26-.3.09-.1.17,0,.26-.13.09-.34.17-.08.26-.35.09-.51.17-.52.26-.41.09-.18.17-.21.26-.34.09-.07.17-.25.25-.34.08-.05.17-.13.25-.3.08-.22.17-.12.25-.24.08,0,.17-.15.25-.39-.05.06-.11.54-.16.48-.05-.05-.1.45-.14.46-.04.14-.09.35-.13.48-.04.12-.08.45-.11.44-.04.36-.07.38-.1.67-.03-.02-.06.45-.08.23-.03.42-.05.42-.07.37-.02.17-.04-.06-.05.5-.01-.03-.03.27-.04.36,0,.3-.02.55-.02.47,0,.14,0,.19.03.34.02.41.06.54.11.6.05.05.11.36.18.51.07-.07.16.24.25.51.14.11.3.48.49.72.18.22.39.39.61.6.11.2.23-.03.35.23.12.07.24.13.37.18.25,0,.52.16.8.16.12.05.25-.08.39-.04.14,0,.29-.13.45-.12.16-.08.33-.18.5-.21.18-.12.36-.12.55-.28.19.16.39-.5.6-.36.21-.12.42-.1.65-.44.22.03.45-.51.69-.51.24-.41.48-.47.73-.58.25-.37.5-.25.76-.64.26-.25.53-.38.8-.71.27.08.55-.55.83-.77.28-.02.56-.56.85-.83.29-.3.58-.88.88-.89.3-.21.59-.78.9-.94.3-.7.61-.38.91-1,.31-.19.62-.82.93-1.05.31-.47.62-.99.94-1.09.16.03.31-.22.47-.49s.32-.57.47-.65c.16-.15.32-.24.48-.47.16-.08.32-.45.48-.71.16.04.32-.16.48-.46.16-.2.32-.42.48-.77.16,0,.32-.34.48-.54.16-.23.32-.61.48-.72.16-.29.32-.23.47-.64.16,0,.32-.39.47-.65.21-.2.42-.46.63-.88.1-.19.21-.34.31-.47.1-.14.19-.29.31-.42.34.08.39-.08.31-.4.21-.02.35-.37.48-.58-.05.08.03.16.12.1-.06.3-.03.67-.2.78.12.34-.08.34-.23.45-.08.2-.15.43-.23.62-.08.2-.15.36-.22.44-.15.29-.29.76-.43,1.07-.14.81-.28.72-.41,1.08-.08.3-.16.42-.23.69-.08-.1-.15.61-.22.56-.07.24-.15.36-.22.7-.07.18-.14.61-.21.54-.07.13-.14.27-.2.47-.07-.13-.13.24-.19.75-.06.29-.13.33-.19.63-.06.18-.12.35-.18.56-.06.25-.11.62-.17.6-.06.19-.11.51-.16.55-.12.21-.24.82-.34,1.29-.05.25-.1.52-.15.68-.05-.03-.09.45-.14.53-.04.74-.09.4-.12.6-.04.06-.08.87-.11.53-.03.42-.07.52-.1.63-.03.49-.06.3-.08.39-.02.2-.05,0-.07.45-.02.24-.04.67-.05.46-.01.18-.03.3-.04.44,0-.17-.02.28-.02.33,0,.65,0,.58,0,.72,0,.13.02.4.04.5.02.5.05.74.09.8.04.16.08.24.13.33.1.72.23.2.39.98.16.43.34.65.55.77.21.16.45.28.71.49.3.1.52.16.66.16.14,0,.22-.09.25-.28.03-.05.02-.06-.01-.42-.03-.32-.08-.59-.13-.4.03-.53.07-.17.11-.53.04-.05.09-.33.15-.6.06-.31.12-.65.19-.66.07-.21.14-.73.22-.71.08-.09.16-.59.25-.77.09-.38.19-1.06.29-.82.1.16.21-.83.32-.87.11-.24.23-.6.35-.92.06-.17.12-.33.18-.49.15-.07.18-.25.19-.47,0-.33.13-.31.2-.41-.01-.17.25-.1.2-.6.09-.09.03-.39.21-.47.03-.22.16-.37.22-.58-.04-.5.09-.64.22-.71.11-.1.07-.29.23-.37.09-.14.2-.26.24-.48-.05-.3.02-.51.24-.63.12-.16.15-.36.25-.52-.02-.27.12-.4.25-.63.2-.15.16-.5.26-.67.1-.18.04-.48.26-.5.05-.22.21-.38.27-.63.06-.25,0-.61.27-.57.1-.34.23-.47.28-.67.04-.2.18-.3.28-.55.22.02-.01-.51.28-.54-.08-.4.2-.48.29-.7.15-.18.19-.41.29-.6.09-.19.18-.41.3-.66.09-.07.09-.35.3-.47.03-.3.18-.55.3-.8.07-.16.4-.07.31-.46.08-.21.36-.3.31-.82.3,0,.08-.52.31-.6.07-.24.1-.54.31-.69.18.03.21-.36.32-.68.08-.33.12-.71.32-.63.15-.12.2-.37.32-.57.42.1.28-.39.32-.74.17-.2.18-.52.33-.7.02-.3.31-.31.33-.61.14-.11.48-.1.33-.59.1-.25.34-.38.33-.72.01-.25.27-.3.33-.57-.06-.39.21-.48.33-.73.18-.21.24-.48.33-.69.09-.22.08-.53.33-.61.21-.07.16-.5.33-.68.11-.25.26-.45.34-.61.28-.07.32-.29.34-.57.18-.11.28-.32.34-.7.22-.11.16-.51.34-.67.19-.14.23-.42.34-.59.04-.11.22-.29.33-.56-.01-.39.2-.58.33-.69.03-.29.42-.27.33-.7.03-.31.4-.24.33-.53.21-.15.31-.34.33-.61.08-.21.06-.51.33-.59.12-.3.17-.56.33-.68.15-.13.22-.31.33-.5.13-.11.14-.42.33-.56.4.07.33-.32.32-.59.07-.2.21-.35.32-.54.28-.02.42-.19.32-.58.1-.29.25-.51.42-.72.24-.14.22-.53.42-.71.07-.12.14-.23.21-.35.07-.12.14-.23.21-.34.09-.4.14-.88.16-1.02-.02-.02-.09-.75-.21-.98ZM307.31,36.48c-.23-.12-.47.28-.71.79-.24.16-.49.4-.75.81-.26.48-.52.33-.78.83-.27.32-.54.69-.82.84-.28.2-.56.73-.85.86-.29.2-.58.89-.88.87-.3.17-.61.73-.92.88-.31.65-.63.77-.95.88-.32.12-.65.93-.97.88-.33.19-.66.95-1,.88-.34.31-.68.71-1.03.88-.35.11-.7.77-1.05.88-.36-.05-.72.95-1.08.87-.36.37-.73.71-1.1.86-.37.19-.75.78-1.12.84-.18.18-.36.31-.54.44-.18.01-.36,0-.55.35-.18.44-.37.24-.55.54-.18.45-.37.31-.55.23-.19.21-.37.3-.56.32-.19.13-.37.22-.56.43-.19.06-.38.08-.57.32-.19.23-.38.22-.57.41.06-.29.12-.5.18-.57.06-.12.13-.41.2-.44.07-.25.14-.81.22-.68.08-.08.15-.29.24-.36.08.07.17-.27.25-.46.09-.41.18-.61.27-.6.09-.05.19-.49.29-.52.1-.28.2-.06.3-.57.1-.07.21-.43.32-.67.11-.36.22-.46.33-.42.11-.26.23-.38.34-.4.12,0,.24-.28.36-.7.12-.21.24-.47.37-.68.12-.22.25-.39.38-.42.26-.3.52-.74.79-1.09.27-.49.55-.72.83-1.08.28-.76.57-.9.87-1.06.29-.31.59-.59.9-1.03.3-.62.61-.68.92-.99.31-.43.63-.79.94-.95.32-.45.64-.64.96-.91.32-.25.65-.98.97-.85.33-.47.65-.41.98-.79.33.02.65-.46.98-.73.33-.28.65-.17.98-.65.33-.23.65-.44.97-.57.32-.12.64-.06.96-.49.32-.06.63-.19.94-.39.31-.11.62-.21.92-.29s.6-.14.89-.19c.31-.05.61-.07.9-.07.29.09.58.13.86.06.28-.27.55,0,.82.2-.16.2-.33.41-.5.63-.18.22-.36.44-.55.67-.19.23-.39.71-.59.7-.2.28-.42.69-.63.73-.22-.13-.44.67-.67.76ZM360.85,32.81c-.28.16-.56,1.14-.84,1.14-.28.66-.56.83-.84,1.12-.07.09-.14.19-.21.28-.07.09-.16.16-.21.28-.11.06-.27.05-.21.28-.14.02-.01.31-.21.27-.29-.02-.15.42-.39.48-.22.09-.33.29-.39.52-.13.06-.26.21-.39.39-.13.18-.26.4-.39.6-.26.18-.52.29-.78.97-.26.1-.52.71-.78.95-.26.37-.52.66-.78.93-.26-.02-.52.38-.77.9-.26.19-.51.37-.77.88-.26.36-.51.43-.76.85-.25.24-.51.88-.76.83-.25.28-.5.21-.75.8-.25.15-.5.24-.75.77-.25.21-.49.62-.74.74-.25.37-.49.21-.73.71-.24.02-.48.57-.72.68-.13.17-.26.29-.39.35-.13-.17-.26.09-.38.34-.13-.12-.25-.17-.38.31-.13.09-.25.23-.38.35-.13.26-.25.37-.37.43-.12.06-.25.09-.37.19-.25.22-.49.41-.73.58-.24.32-.48.44-.72.54-.24.09-.47.34-.71.49s-.46.31-.69.45c.04-.34.09-.68.17-1.04.07-.48.16-.79.26-1.08.1-.35.22-.72.35-1.11.13,0,.28-1.03.44-1.13.08-.15.16-.35.25-.56.09-.31.18-.38.27-.59.09-.17.19-.22.29-.49.1-.31.2-.56.3-.67.1-.25.21-.25.32-.53.11-.22.22-.46.34-.63.23-.15.47-.99.72-1.15.25-.25.5-1.06.77-1.14.26.14.54-.81.82-1.12.28-.68.57-.61.86-1.09.29-.59.59-.65.9-1.06.3-.03.61-.36.92-1.02.31-.22.63-.62.95-.97.32.09.64-.31.97-.91.32-.52.65-.34.98-.84.33-.07.66-.17.98-.77.33-.14.66-.52.98-.69.33-.24.65-.62.98-.6.32.13.64-.46.96-.51.32.19.63-.74.94-.41.31-.04.62.05.92-.3.3.16.6-.36.89-.18.29.05.57-.06.85-.06.28,0,.55.03.81.07-.28.39-.56.77-.84,1.16Z"/>
      </g>
      <path class="cls-1" d="M185.25,23.71c1.68.34,6.97-2.52,7.53-5.31.36-1.82-1.68-3.27-2.16-3.37-2.01-.4-5.9,5.01-6.34,7.22-.15.73.16,1.3.98,1.46Z"/>
    </g>
  </g>
</svg>